<svg width="164" height="58" viewBox="0 0 164 58" fill="none" xmlns="http://www.w3.org/2000/svg">
<g clip-path="url(#clip0_17_56)">
<path d="M5.24506 14.1104H10.0151L21.0421 28.6779V14.1104H26.1426V37.78H21.7442L10.3455 22.7345V37.78H5.24506V14.1104Z" fill="#D50032"/>
<path d="M39.7507 13.9441H44.5208L54.5978 37.78H49.1876L47.0401 32.4808H37.0869L34.9393 37.78H29.6736L39.7507 13.9441ZM45.2022 27.8674L42.0841 20.1992L38.966 27.8674H45.2022Z" fill="#D50032"/>
<path d="M58.129 14.1104H68.8875C71.8817 14.1104 74.1944 14.9624 75.7432 16.5002C77.0441 17.8302 77.7668 19.6797 77.7668 21.9864C77.7668 25.8101 75.7225 28.2207 72.7283 29.3221L78.4689 37.78H72.4186L67.3181 30.1949H63.312V37.78H58.129V14.1104ZM68.5571 25.6023C71.0763 25.6023 72.5218 24.2515 72.5218 22.1942C72.5218 19.9706 70.9731 18.8069 68.4538 18.8069H63.312V25.6023H68.5571Z" fill="#D50032"/>
<path d="M88.7525 25.7478L77.6636 9.08133H83.7139L91.8706 21.7786L96.8472 14.1104H102.732L94.8648 25.6646L110.125 48.3784H104.075L91.726 29.6546L86.419 37.78H80.5545L88.7525 25.7478Z" fill="#D50032"/>
<path d="M104.095 25.9348C104.095 19.2017 109.361 13.6947 116.63 13.6947C123.898 13.6947 129.102 19.1394 129.102 25.9348C129.102 32.6679 123.836 38.1748 116.568 38.1748C109.299 38.1748 104.095 32.7302 104.095 25.9348ZM123.692 25.9348C123.692 21.8825 120.739 18.4952 116.568 18.4952C112.396 18.4952 109.505 21.8201 109.505 25.9348C109.505 29.9871 112.458 33.3744 116.63 33.3744C120.801 33.3744 123.692 30.0702 123.692 25.9348Z" fill="#D50032"/>
<path d="M131.725 33.8316L144.672 18.6822H132.138V14.1104H151.321V18.0588L138.374 33.2082H151.321V37.78H131.725V33.8316Z" fill="#D50032"/>
<path d="M5.24506 44.991V40.5647H6.58729V44.9287C6.58729 46.3626 7.31003 47.1315 8.52836 47.1315C9.72604 47.1315 10.4488 46.4042 10.4488 44.991V40.5647H11.7704V44.9287C11.7704 47.2146 10.4901 48.3784 8.48706 48.3784C6.50469 48.3784 5.24506 47.2146 5.24506 44.991Z" fill="#D40031"/>
<path d="M16.1894 40.5647H17.4284L21.517 45.8846V40.5647H22.8386V48.2537H21.7235L17.511 42.7882V48.2537H16.1894V40.5647Z" fill="#D40031"/>
<path d="M27.4435 40.5647H28.8064V48.2537H27.4435V40.5647Z" fill="#D40031"/>
<path d="M32.7505 40.5647H34.2373L36.5294 46.4873L38.8215 40.5647H40.2876L37.1076 48.316H35.9305L32.7505 40.5647Z" fill="#D40031"/>
<path d="M44.1491 40.5647H49.8278V41.77H45.4913V43.765H49.3322V44.991H45.4913V47.0484H49.8691V48.2537H44.1491V40.5647Z" fill="#D40031"/>
<path d="M54.0403 40.5647H57.4475C59.2441 40.5647 60.2972 41.5414 60.2972 43.0168C60.2972 44.2845 59.5538 45.0326 58.48 45.3443L60.545 48.2537H58.955L57.0552 45.5729H55.4032V48.2537H54.061L54.0403 40.5647ZM57.3443 44.3884C58.2942 44.3884 58.9137 43.8896 58.9137 43.0792C58.9137 42.2479 58.3148 41.8115 57.3236 41.8115H55.3619V44.3884H57.3443Z" fill="#D40031"/>
<path d="M63.9728 47.1315L64.7782 46.1548C65.5009 46.799 66.2443 47.1523 67.1942 47.1523C68.0202 47.1523 68.5364 46.7782 68.5364 46.1548C68.5364 45.6145 68.2267 45.3027 66.8019 44.9702C65.1705 44.5962 64.2619 44.0974 64.2619 42.6635C64.2619 41.3543 65.3564 40.44 66.8638 40.44C67.9789 40.44 68.8668 40.7725 69.6309 41.4167L68.9081 42.435C68.2267 41.9154 67.5246 41.6453 66.8432 41.6453C66.0585 41.6453 65.6042 42.0609 65.6042 42.5804C65.6042 43.1831 65.9552 43.4324 67.4213 43.7857C69.032 44.1806 69.8787 44.7624 69.8787 46.0509C69.8787 47.4848 68.7636 48.3368 67.1529 48.3368C65.9965 48.3576 64.9021 47.9627 63.9728 47.1315Z" fill="#D40031"/>
<path d="M74.1118 40.5647H75.454V48.2537H74.1118V40.5647Z" fill="#D40031"/>
<path d="M81.9381 41.8115H79.5221V40.5647H85.717V41.8115H83.301V48.2537H81.9381V41.8115Z" fill="#D40031"/>
<path d="M91.9532 45.2196L88.9177 40.5647H90.5077L92.6553 43.9728L94.8029 40.5647H96.3516L93.3161 45.1988V48.2537H91.9532V45.2196Z" fill="#D40031"/>
</g>
<defs>
<clipPath id="clip0_17_56">
<rect width="164" height="58" fill="white"/>
</clipPath>
</defs>
</svg>
