<svg width="53" height="53" viewBox="0 0 53 53" fill="none" xmlns="http://www.w3.org/2000/svg">
<path d="M10.3787 0.276005L10.107 0.541004V4.69267V8.8333H6.45541C3.90148 8.8333 2.66255 8.87747 2.34739 8.9658C1.74966 9.14247 0.847633 10.0589 0.673748 10.6662C0.597674 10.9202 0.543335 11.6821 0.543335 12.3556C0.543335 13.515 0.554203 13.6033 0.81503 13.8573C0.978047 14.0339 1.20627 14.1333 1.41276 14.1333C1.61925 14.1333 1.84747 14.0339 2.01049 13.8573C2.27131 13.6033 2.28218 13.515 2.28218 12.3666C2.28218 11.2183 2.29305 11.13 2.55388 10.876L2.8147 10.6H6.46628H10.107V11.4833V12.3666H7.3357H4.55355L4.29272 12.6427L4.02103 12.9077V25.6166V38.3256L4.29272 38.5906L4.55355 38.8667H26.626H48.6985L48.9593 38.5906L49.231 38.3256V25.6166V12.9077L48.9593 12.6427L48.6985 12.3666H45.9164H43.1451V11.4833V10.6H46.7858H50.4374L50.6982 10.876L50.9699 11.141V27.3833V43.6256L50.6982 43.8906L50.4374 44.1667H26.626H2.8147L2.55388 43.8906L2.28218 43.6256V32.2417V20.8577L2.01049 20.5927C1.84747 20.416 1.61925 20.3166 1.41276 20.3166C1.20627 20.3166 0.978047 20.416 0.81503 20.5927L0.543335 20.8577V32.2527C0.543335 40.8762 0.575938 43.7581 0.673748 44.1004C0.847633 44.7077 1.74966 45.6242 2.34739 45.8008C2.68429 45.9002 5.10781 45.9333 12.0523 45.9333H21.3008L21.2356 46.2315C20.9639 47.4019 20.1597 48.9587 19.0947 50.3831L18.4535 51.2333H17.1493C15.9213 51.2333 15.8452 51.2444 15.5952 51.5094C15.2366 51.8627 15.2366 52.3706 15.5952 52.724L15.8561 53H26.626H37.396L37.6568 52.724C37.8307 52.5583 37.9285 52.3265 37.9285 52.1167C37.9285 51.9069 37.8307 51.675 37.6568 51.5094C37.4069 51.2444 37.3308 51.2333 36.1027 51.2333H34.7986L34.1574 50.3721C33.0489 48.9146 32.2229 47.3467 32.0056 46.2977L31.9295 45.9333H41.1997C48.1443 45.9333 50.5678 45.9002 50.9047 45.8008C51.5024 45.6242 52.4044 44.7077 52.5783 44.1004C52.7631 43.4379 52.7631 11.3287 52.5783 10.6662C52.4044 10.0589 51.5024 9.14247 50.9047 8.9658C50.5895 8.87747 49.3506 8.8333 46.7966 8.8333H43.1451V4.69267V0.541004L42.8734 0.276005L42.6125 -3.8147e-05H38.3632H34.1139L33.8531 0.276005C33.5814 0.541004 33.5814 0.541004 33.5814 2.92601V5.29996H30.5384H27.4955V4.25101C27.4955 3.27934 27.4737 3.16892 27.2238 2.92601L26.9629 2.64996H23.3114H19.6706V1.60101C19.6706 0.629337 19.6489 0.518921 19.3989 0.276005L19.1381 -3.8147e-05H14.8888H10.6395L10.3787 0.276005ZM17.9318 3.5333V5.29996H14.8888H11.8458V3.5333V1.76663H14.8888H17.9318V3.5333ZM41.4062 11.4833V21.2H38.3632H35.3203V11.4833V1.76663H38.3632H41.4062V11.4833ZM25.7566 12.8083V21.2H22.7136H19.6706V12.8083V4.41663H22.7136H25.7566V12.8083ZM17.9318 7.94997V8.8333H14.8888H11.8458V7.94997V7.06663H14.8888H17.9318V7.94997ZM33.5814 8.8333V10.6H30.5384H27.4955V8.8333V7.06663H30.5384H33.5814V8.8333ZM17.9318 20.3166V30.0333H14.8888H11.8458V20.3166V10.6H14.8888H17.9318V20.3166ZM33.5814 13.25V14.1333H30.5384H27.4955V13.25V12.3666H30.5384H33.5814V13.25ZM10.107 22.0833V30.0333H9.07455C8.11818 30.0333 8.00951 30.0554 7.77041 30.3094C7.49872 30.5744 7.49872 30.5964 7.49872 32.6833C7.49872 34.7702 7.49872 34.7923 7.77041 35.0573L8.03124 35.3333H26.626H45.2208L45.4816 35.0573C45.7533 34.7923 45.7533 34.7702 45.7533 32.6833C45.7533 30.5964 45.7533 30.5744 45.4816 30.3094C45.2426 30.0554 45.1339 30.0333 44.1775 30.0333H43.1451V22.0833V14.1333H45.3186H47.4922V25.6166V37.1H26.626H5.75987V25.6166V14.1333H7.93343H10.107V22.0833ZM33.5814 22.9666V30.0333H30.5384H27.4955V22.9666V15.9H30.5384H33.5814V22.9666ZM25.7566 23.85V24.7333H22.7136H19.6706V23.85V22.9666H22.7136H25.7566V23.85ZM41.4062 23.85V24.7333H38.3632H35.3203V23.85V22.9666H38.3632H41.4062V23.85ZM25.7566 28.2666V30.0333H22.7136H19.6706V28.2666V26.5H22.7136H25.7566V28.2666ZM41.4062 28.2666V30.0333H38.3632H35.3203V28.2666V26.5H38.3632H41.4062V28.2666ZM44.0145 32.6833V33.5667H26.626H9.23757V32.6833V31.8H26.626H44.0145V32.6833ZM30.2124 46.1431C30.2124 46.5075 30.7667 48.1527 31.1362 48.9146C31.3318 49.3121 31.723 49.9746 31.9947 50.3942C32.2664 50.8137 32.4946 51.1671 32.4946 51.1892C32.4946 51.2112 29.8538 51.2333 26.626 51.2333C23.3983 51.2333 20.7574 51.2112 20.7574 51.1892C20.7574 51.1671 20.9856 50.8137 21.2573 50.3942C21.9855 49.301 22.681 47.7773 22.8984 46.7835L23.094 45.9333H26.6478C30.1037 45.9333 30.2124 45.9444 30.2124 46.1431Z" fill="#B8B8B8"/>
<path d="M0.81503 16.1758C0.575938 16.4077 0.543335 16.5402 0.543335 17.2248C0.543335 17.9094 0.575938 18.0419 0.81503 18.2737C0.978047 18.4504 1.20627 18.5498 1.41276 18.5498C1.61925 18.5498 1.84747 18.4504 2.01049 18.2737C2.24958 18.0419 2.28218 17.9094 2.28218 17.2248C2.28218 16.5402 2.24958 16.4077 2.01049 16.1758C1.84747 15.9991 1.61925 15.8998 1.41276 15.8998C1.20627 15.8998 0.978047 15.9991 0.81503 16.1758Z" fill="#B8B8B8"/>
<path d="M24.2896 40.9094C24.1158 41.075 24.0179 41.3069 24.0179 41.5167C24.0179 41.7265 24.1158 41.9583 24.2896 42.124C24.5505 42.4 24.5722 42.4 26.6262 42.4C28.6802 42.4 28.702 42.4 28.9628 42.124C29.1367 41.9583 29.2345 41.7265 29.2345 41.5167C29.2345 41.3069 29.1367 41.075 28.9628 40.9094C28.702 40.6333 28.6802 40.6333 26.6262 40.6333C24.5722 40.6333 24.5505 40.6333 24.2896 40.9094Z" fill="#B8B8B8"/>
</svg>
