<svg width="52" height="53" viewBox="0 0 52 53" fill="none" xmlns="http://www.w3.org/2000/svg">
<path d="M9.12981 0.103359C8.45543 0.331493 8.12846 0.549255 7.638 1.07811C7.12711 1.62771 6.72862 2.54025 6.72862 3.13132V3.49426H5.75792C3.98002 3.49426 2.8254 3.92979 1.77297 4.99788C0.751184 6.03485 0.546828 6.8748 1.23142 7.20663C1.64014 7.40366 2.00798 7.25848 2.28386 6.81258C2.66192 6.20077 3.25455 5.67191 3.86762 5.37119C4.33764 5.15342 4.60331 5.10157 5.56378 5.07047L6.70818 5.02898L6.73884 6.40816C6.77971 7.67327 6.80014 7.84956 7.06581 8.38878C7.87301 10.0479 9.85528 10.7427 11.4799 9.93387C12.1952 9.57093 12.7163 9.03171 13.0841 8.27472C13.2885 7.8703 13.3191 7.59031 13.3498 6.41853L13.3906 5.04972H16.2823H19.1739L19.2148 6.47038C19.2455 7.77697 19.2761 7.94288 19.5213 8.43026C20.8088 10.919 24.3442 10.836 25.509 8.28508C25.744 7.7666 25.7849 7.5281 25.8155 6.36668L25.8564 5.04972H28.7072H31.558V6.03485C31.558 7.68364 31.8134 8.50285 32.5797 9.27021C33.5811 10.2968 35.124 10.5561 36.4216 9.9235C37.0143 9.62278 37.8317 8.71024 38.0361 8.09843C38.1485 7.74586 38.1995 7.22737 38.1995 6.31483V5.02898L39.4053 5.07047C40.5292 5.11194 40.6416 5.13268 41.2445 5.46452C41.9597 5.84819 42.4706 6.38742 42.818 7.1133C43.0428 7.56957 43.053 7.71475 43.0837 10.7738L43.1143 13.9677H22.4641H1.82406V11.8938C1.82406 9.81981 1.82406 9.80944 1.56861 9.56056C1.25186 9.22873 0.863581 9.22873 0.53661 9.56056L0.291382 9.80944L0.311818 25.1359L0.342471 40.4624L0.577481 41.1883C1.18033 43.0134 2.49843 44.5896 4.07198 45.3673C5.76814 46.2072 4.97115 46.1554 16.0268 46.1969L25.8871 46.228L26.2651 46.819C27.8182 49.2767 30.6894 51.4647 33.5606 52.3669C35.1853 52.8853 35.9823 53.0098 37.8419 52.9994C39.6913 52.9994 40.5088 52.8853 42.1334 52.3669C43.6252 51.8899 46.0366 50.5522 46.2001 50.1063C46.4147 49.5567 46.0979 49.0174 45.5666 49.0174C45.3827 49.0174 44.9331 49.2352 44.3916 49.5774C39.5279 52.678 33.1826 51.9521 29.075 47.8249C26.684 45.4191 25.417 42.3497 25.417 38.9277C25.417 36.7708 25.8053 35.0598 26.6738 33.3073C28.6663 29.2942 32.3958 26.7017 36.7588 26.3181C44.1974 25.6544 50.5325 31.7933 50.2259 39.3736C50.1238 41.9453 49.4596 43.957 47.9985 46.1243C47.6613 46.6117 47.3956 47.1301 47.3956 47.2649C47.3956 47.9908 48.2335 48.2501 48.7444 47.7005C49.4392 46.9331 50.5018 44.9836 51.0025 43.5629C51.544 42.0282 51.7382 40.815 51.7382 38.9069C51.7382 37.6418 51.6871 36.8952 51.5543 36.2419C50.7879 32.3947 48.6217 29.1179 45.4338 27.0025L44.6368 26.484V17.1305C44.6368 6.9785 44.6572 7.35181 44.0748 6.1904C43.5537 5.14305 42.3276 4.09571 41.224 3.74314C40.9379 3.64981 40.1512 3.54611 39.4768 3.50463L38.2506 3.44241L38.1791 2.84097C38.0463 1.73141 37.3515 0.79813 36.2684 0.269272C35.9005 0.0826187 35.6144 0.0307693 34.9298 0.0307693C34.1839 0.020401 33.9796 0.0618782 33.4789 0.310753C32.498 0.79813 31.7725 1.84547 31.609 2.99652L31.5375 3.49426H28.7072H25.8768L25.7542 2.87208C25.601 2.03213 25.274 1.38921 24.7324 0.881088C24.0274 0.227795 23.4859 0.020401 22.4641 0.020401C21.6773 0.0307693 21.5343 0.0618782 20.9518 0.383339C19.9198 0.943306 19.1944 2.05287 19.1944 3.07948V3.49426H16.2925H13.4009L13.3396 2.98615C13.2067 1.82473 12.4097 0.735912 11.3777 0.269272C10.7544 -0.0107079 9.70201 -0.0832977 9.12981 0.103359ZM11.0916 1.89732C11.7967 2.47803 11.8375 2.65432 11.8375 5.10157C11.8375 6.99924 11.8069 7.33107 11.6434 7.70438C11.0405 9.04208 9.05828 9.04208 8.45543 7.70438C8.29195 7.33107 8.26129 6.99924 8.26129 5.13268C8.26129 3.86757 8.30216 2.87208 8.37369 2.69579C8.51674 2.31211 8.94589 1.84547 9.33417 1.66919C9.83484 1.43068 10.642 1.53438 11.0916 1.89732ZM23.2304 1.72104C24.1602 2.15657 24.2931 2.56099 24.3033 5.11194C24.3033 6.3252 24.2624 7.22737 24.1909 7.44514C23.7617 8.75172 22.0758 9.1354 21.1664 8.13991C20.7679 7.71475 20.7271 7.40366 20.7271 5.08083C20.7271 2.88245 20.7271 2.8306 20.9825 2.40544C21.4321 1.61734 22.3823 1.32699 23.2304 1.72104ZM35.7575 1.76252C36.0334 1.91806 36.2888 2.15657 36.4319 2.41581C36.6567 2.79949 36.6669 2.9343 36.6669 5.13268C36.6669 7.60068 36.6362 7.7666 36.1355 8.22287C35.7575 8.57544 35.4407 8.69987 34.9298 8.69987C34.3679 8.69987 33.9285 8.49248 33.5606 8.05695C33.1417 7.53846 33.0702 7.07182 33.1111 4.84233C33.1417 2.80986 33.1417 2.79949 33.4278 2.36396C33.9489 1.56549 34.9196 1.31662 35.7575 1.76252ZM43.1041 20.6043C43.1041 23.3938 43.0837 25.6855 43.053 25.6855C43.0326 25.6855 42.675 25.5714 42.2662 25.4366C41.8575 25.3018 41.1729 25.1152 40.7336 25.0115L39.957 24.8352L39.9161 22.9064C39.8855 21.0399 39.8753 20.9465 39.6096 20.4384C39.2622 19.754 38.6083 19.1941 37.9543 18.997C37.2084 18.7689 33.0089 18.7793 32.3447 19.0074C31.7317 19.2148 31.0266 19.8577 30.7201 20.4799C30.4953 20.9465 30.4851 21.0606 30.4851 23.5079C30.4851 24.9078 30.526 26.1936 30.5668 26.3595C30.6383 26.6706 30.6179 26.7017 29.8516 27.241C28.3802 28.2779 26.7147 30.0719 25.8973 31.5029L25.6214 31.9903L25.1207 31.8348C24.3646 31.6066 20.022 31.6792 19.4805 31.9281C18.847 32.2185 18.2032 32.9029 17.9682 33.525C17.7843 34.0332 17.7639 34.3339 17.7639 36.5115C17.7639 39.2595 17.8252 39.581 18.4893 40.338C18.7039 40.5972 19.1024 40.9083 19.3681 41.0431C19.8279 41.2712 20.0016 41.292 21.9634 41.3231L24.0785 41.3646L24.1398 41.7897C24.2011 42.1527 24.712 43.8326 24.9675 44.4859C25.039 44.6621 24.6507 44.6725 15.659 44.6414L6.26882 44.6103L5.59444 44.3718C4.26612 43.9259 3.02976 42.8474 2.42691 41.6342C1.80362 40.3898 1.82406 40.8772 1.82406 27.6247V15.5232H22.4641H43.1041V20.6043ZM37.8011 20.6354C38.3222 20.988 38.4141 21.4132 38.3835 23.176L38.3528 24.69L37.331 24.7211C36.0129 24.7626 34.3474 25.0841 33.1111 25.53C32.5593 25.727 32.0893 25.8929 32.0484 25.8929C31.9973 25.8929 31.9667 24.9078 31.9667 23.7153C31.9667 21.268 32.028 20.9569 32.6002 20.6043C32.9067 20.4177 33.1111 20.3969 35.1955 20.3969C37.3821 20.3969 37.4639 20.4073 37.8011 20.6354ZM24.8551 33.3591C24.8755 33.3902 24.7529 33.8776 24.5587 34.4479C24.1194 35.8064 23.8946 37.1959 23.8844 38.627V39.7884H22.1473C20.1855 39.7884 19.8381 39.7054 19.5009 39.1454C19.317 38.8343 19.2966 38.627 19.2966 36.5219C19.2966 33.1621 19.2148 33.2451 22.5867 33.2865C23.8026 33.2969 24.8244 33.328 24.8551 33.3591Z" fill="#D50032"/>
<path d="M7.02462 18.986C6.45242 19.1934 5.96196 19.5356 5.66564 19.9297C5.14453 20.6244 5.09344 20.9355 5.09344 23.7042C5.09344 26.1722 5.10366 26.2759 5.33867 26.7737C5.63499 27.3959 6.11523 27.8832 6.7283 28.1632C7.14723 28.3603 7.39246 28.381 9.79365 28.381C12.3072 28.381 12.4196 28.3706 12.9101 28.1321C13.4414 27.8832 13.9421 27.3855 14.2588 26.7944C14.4223 26.5041 14.4428 26.11 14.4734 23.7665L14.5041 21.06L14.1669 20.3963C13.799 19.6704 13.186 19.1519 12.4707 18.9445C11.8985 18.789 7.48442 18.8201 7.02462 18.986ZM12.6138 20.8318L12.9612 21.2259V23.5591C12.9612 26.9915 13.1247 26.8255 9.77321 26.8255C6.46263 26.8255 6.62612 26.9915 6.62612 23.6109C6.62612 20.2615 6.49329 20.3859 9.92648 20.417L12.2664 20.4481L12.6138 20.8318Z" fill="#D50032"/>
<path d="M19.8078 18.9342C19.3276 19.0897 18.9393 19.3386 18.5715 19.743C17.8256 20.5311 17.8154 20.5726 17.7847 23.4346C17.754 25.5708 17.7745 26.0893 17.9175 26.5041C18.1321 27.1677 18.6634 27.7796 19.3174 28.1114C19.8487 28.381 19.8589 28.381 22.4542 28.381C24.9883 28.381 25.0802 28.3706 25.5809 28.1321C26.194 27.8314 26.6742 27.344 26.9501 26.7218C27.1442 26.2967 27.1647 26.0478 27.1647 23.6109C27.1647 21.2777 27.134 20.9148 26.9705 20.5518C26.6947 19.9297 26.2859 19.4838 25.6933 19.1727L25.1722 18.8927L22.6177 18.8719C21.2179 18.8616 19.9509 18.8927 19.8078 18.9342ZM24.9781 20.5622C25.5911 20.8629 25.632 21.0392 25.632 23.725V26.1204L25.2846 26.473L24.9372 26.8255H22.5769C19.1437 26.8255 19.2969 26.9707 19.2969 23.642C19.2969 21.1533 19.3276 21.0289 19.8998 20.6348C20.237 20.4067 20.3289 20.3963 22.4338 20.3963C24.2526 20.3963 24.692 20.4274 24.9781 20.5622Z" fill="#D50032"/>
<path d="M7.20854 31.8144C6.37067 32.0218 5.71673 32.5714 5.33867 33.4114C5.10366 33.9091 5.09344 34.0232 5.09344 36.5223C5.09344 39.0214 5.10366 39.1355 5.33867 39.6332C5.46129 39.9132 5.76782 40.328 6.01305 40.5457C6.79982 41.282 6.88157 41.2924 9.79365 41.2924C12.7057 41.2924 12.7875 41.2716 13.5742 40.5561C14.4223 39.768 14.4428 39.6954 14.4428 36.5223C14.4428 33.3491 14.4223 33.2766 13.5742 32.4885C12.8079 31.7833 12.6751 31.7626 9.998 31.7315C8.6799 31.7211 7.42311 31.7522 7.20854 31.8144ZM12.1744 33.401C12.3583 33.4736 12.5933 33.6395 12.7057 33.7743C12.8999 33.9921 12.9101 34.1476 12.9101 36.5223C12.9101 39.9236 13.0327 39.7888 9.79365 39.7888C7.55594 39.7888 7.23919 39.7265 6.85091 39.2184C6.63634 38.9384 6.62612 38.8347 6.62612 36.5223C6.62612 34.2098 6.63634 34.1061 6.85091 33.8262C7.23919 33.318 7.51507 33.2662 9.77321 33.2558C11.2957 33.2558 11.9292 33.2973 12.1744 33.401Z" fill="#D50032"/>
<path d="M36.4416 28.8061C34.9396 29.0238 33.2434 29.7186 32.0275 30.6C26.9901 34.2502 26.3668 41.6127 30.7298 46.0199C32.007 47.3057 33.5908 48.2494 35.3074 48.7264C36.3905 49.0375 39.1289 49.0582 40.1404 48.7678C43.0525 47.9486 45.2596 46.2169 46.6288 43.6867C47.4973 42.0897 47.8651 40.3891 47.7732 38.3566C47.6608 35.7123 46.6083 33.3688 44.718 31.5333C42.5212 29.4075 39.3843 28.3706 36.4416 28.8061ZM39.2719 30.403C40.9681 30.7037 42.4599 31.4918 43.7167 32.7362C44.9939 34.0117 45.7807 35.4635 46.1281 37.1848C46.3631 38.3774 46.2814 40.2646 45.9646 41.2913C45.0552 44.1844 42.8993 46.3413 40.0689 47.1709C39.3945 47.3783 39.0369 47.4094 37.7393 47.399C36.2985 47.399 36.1453 47.3783 35.2359 47.0672C32.4771 46.1339 30.5152 44.06 29.6569 41.1876C29.4219 40.3995 29.3811 40.0573 29.3811 38.9581C29.3708 36.376 30.2189 34.3643 32.0479 32.6118C34.0097 30.7349 36.6255 29.9364 39.2719 30.403Z" fill="#D50032"/>
<path d="M34.061 35.0704C33.5603 35.5785 33.642 35.7237 35.6447 37.7562L37.4839 39.6331H39.3334C41.1521 39.6331 41.1828 39.6331 41.3769 39.3842C41.6426 39.0524 41.6222 38.6272 41.3361 38.3576C41.1113 38.1398 40.9989 38.1295 39.6297 38.1295H38.1583L36.5132 36.4703C34.7149 34.666 34.5514 34.5623 34.061 35.0704Z" fill="#D50032"/>
</svg>
