<svg width="53" height="53" viewBox="0 0 53 53" fill="none" xmlns="http://www.w3.org/2000/svg">
<path d="M29.715 0.0294209C29.6333 0.0500984 29.2148 0.122475 28.7962 0.184511C26.1625 0.618761 23.5491 2.26271 21.8443 4.55804C21.0582 5.61265 20.2926 7.20491 19.9455 8.50766C19.7005 9.4382 19.6699 9.71736 19.6699 11.351C19.6699 12.9846 19.7005 13.2638 19.9455 14.1943C20.7826 17.3685 22.957 20.0774 25.8358 21.5559C26.6933 22.0005 28.1225 22.4657 29.1229 22.6208C30.2663 22.8069 32.5019 22.7036 33.5942 22.4141C35.5543 21.8867 37.1264 20.9976 38.6168 19.5397C40.1175 18.0819 41.1893 16.2311 41.7304 14.1943C41.9754 13.2638 42.006 12.9846 42.006 11.351C42.006 9.7277 41.9754 9.4382 41.7304 8.53868C40.6177 4.32024 37.3305 1.13573 33.1451 0.225868C32.4815 0.0811176 30.0723 -0.063633 29.715 0.0294209ZM33.1349 2.35577C37.0447 3.37936 39.801 6.83269 39.995 10.9374C40.3114 17.6786 33.7065 22.4657 27.4487 20.0257C24.6618 18.9297 22.4568 16.2828 21.8443 13.2638C20.803 8.16647 24.1106 3.17257 29.174 2.20068C30.2459 1.99389 32.0528 2.06627 33.1349 2.35577Z" fill="#B8B8B8"/>
<path d="M30.1035 4.28935C29.7258 4.52715 29.6135 4.83733 29.6135 5.65414C29.6135 6.34687 29.6033 6.36755 29.2971 6.49162C29.1235 6.564 28.7662 6.84316 28.5008 7.11198C27.0002 8.58017 27.3983 11.1133 29.2767 12.0645C29.5115 12.1783 30.0219 12.323 30.3996 12.385C30.9815 12.4574 31.1448 12.5298 31.3796 12.7986C31.6859 13.1501 31.7267 13.4913 31.5021 13.9359C31.1346 14.6597 30.1954 14.6287 29.5115 13.8842C28.9296 13.2535 28.2456 13.1708 27.7658 13.6878C27.4187 14.06 27.4391 14.608 27.8168 15.1043C28.1129 15.4972 29.2256 16.314 29.4604 16.314C29.5523 16.314 29.6033 16.5621 29.6237 17.2032C29.6646 18.02 29.685 18.1027 29.9504 18.3405C30.1444 18.5059 30.3588 18.5886 30.6344 18.5886C30.91 18.5886 31.1244 18.5059 31.3184 18.3405C31.5838 18.113 31.6042 18.02 31.6348 17.2135C31.6756 16.3967 31.6961 16.3243 31.9002 16.2726C32.0329 16.2416 32.3494 16.0245 32.6148 15.7867C34.5953 14.0187 33.6765 10.8031 31.0733 10.3999C30.2056 10.2655 29.9402 10.1414 29.7565 9.77953C29.5217 9.3246 29.5829 8.9834 29.9606 8.60085C30.4608 8.09422 30.9917 8.15625 31.7879 8.82831C32.5127 9.43833 33.6459 8.76628 33.4417 7.83574C33.36 7.47386 32.7373 6.87418 32.1146 6.57434L31.6552 6.34687V5.63346C31.6552 4.84767 31.4817 4.41342 31.0733 4.22731C30.7365 4.07222 30.4302 4.0929 30.1035 4.28935Z" fill="#B8B8B8"/>
<path d="M47.3662 22.1797C46.5699 22.4486 46.0493 22.8415 44.8753 24.0822C44.3138 24.6612 42.8744 26.1604 41.6801 27.4011L39.5056 29.6654L39.0463 29.2312C38.4542 28.6728 37.6375 28.3006 36.78 28.1869C36.4023 28.1455 33.5745 28.1042 30.4916 28.0938H24.8871L23.9377 27.7837C22.4983 27.3184 21.3856 27.153 19.7114 27.153C16.8326 27.153 14.5153 27.825 12.2796 29.2932C11.1363 30.048 9.59479 31.6092 8.85978 32.7569L8.2881 33.6461L7.57351 33.6978C6.3587 33.7908 6.16474 33.9356 3.15323 36.9857L0.417358 39.7463V40.2322V40.7285L6.29745 46.746C9.53354 50.0442 12.2796 52.8048 12.4021 52.8772C12.688 53.0426 13.0248 53.0426 13.3617 52.8669C13.5148 52.7841 14.8624 51.471 16.3528 49.9408C19.4562 46.777 19.4562 46.7667 19.3949 45.2778L19.3541 44.4817L20.1299 43.7579C21.3652 42.5896 20.722 42.6723 29.1032 42.6723C33.5235 42.6723 36.6371 42.6309 37.1577 42.5689C38.8727 42.3414 40.6184 41.5867 41.9353 40.4803C42.6907 39.8496 52.0417 28.4867 52.3377 27.8354C52.5521 27.3908 52.5827 27.153 52.5827 26.1294C52.5827 25.0334 52.5623 24.8886 52.2969 24.32C51.8987 23.4825 51.2046 22.7794 50.3573 22.3762C49.4793 21.9626 48.2645 21.8799 47.3662 22.1797ZM49.561 24.2993C50.2246 24.6819 50.5716 25.2092 50.6227 25.9019C50.6533 26.2948 50.6125 26.6257 50.5104 26.8738C50.3164 27.3391 41.7107 37.8128 40.7919 38.702C40.0467 39.4257 39.0973 39.9634 37.9846 40.3046C37.2292 40.5424 37.1577 40.5424 29.2563 40.6044C23.7437 40.6458 21.1916 40.6975 20.967 40.7802C20.2627 41.0283 19.4051 41.5763 18.7212 42.207L18.0066 42.8687L14.0151 38.8157L10.0133 34.7627L10.5033 33.9873C12.4634 30.9061 15.7097 29.2208 19.691 29.2208C21.2529 29.2208 22.2329 29.3759 23.4477 29.8205L24.2542 30.11L30.5324 30.1617C36.7902 30.2134 36.8106 30.2134 37.2394 30.4409C38.7094 31.237 38.7094 33.3255 37.2394 34.1217C36.8208 34.3491 36.7391 34.3491 32.1351 34.4008L27.4494 34.4525L27.2044 34.742C26.8573 35.1556 26.8778 35.6519 27.2555 36.0758L27.5515 36.417L31.8084 36.448C36.3614 36.479 37.1577 36.4273 38.0254 36.0241C39.4444 35.3624 40.5469 33.553 40.4244 32.0848C40.3938 31.7436 40.5571 31.5472 43.834 28.1249C45.8655 26.0156 47.4581 24.4337 47.7031 24.289C48.2645 23.9788 49.02 23.9788 49.561 24.2993ZM12.79 40.47L17.3634 45.102V45.5673V46.0326L15.1788 48.2245C13.9742 49.4342 12.9534 50.4268 12.9023 50.4268C12.8615 50.4268 10.5646 48.1418 7.81851 45.3605L2.81635 40.2942L5.08264 37.9989L7.34892 35.7139L7.77768 35.776C8.19622 35.8277 8.43102 36.0551 12.79 40.47Z" fill="#B8B8B8"/>
<path d="M23.1724 34.3563C22.6314 34.6561 22.5497 35.4419 22.9989 35.9279C23.4379 36.4035 24.275 36.3104 24.5608 35.7417C25.061 34.7595 24.1218 33.829 23.1724 34.3563Z" fill="#B8B8B8"/>
</svg>
