<svg width="57" height="53" viewBox="0 0 57 53" fill="none" xmlns="http://www.w3.org/2000/svg">
<path d="M22.1418 0.359198C21.6772 0.6511 21.467 0.864414 21.2347 1.33595L20.9249 1.93098V9.61028C20.9249 15.8076 20.9581 17.3682 21.0687 17.6601C21.29 18.1877 21.7767 18.7266 22.2967 19.0073C22.7392 19.2543 22.8388 19.2543 27.7173 19.288L32.6955 19.3217L36.0696 21.7692C37.9392 23.1164 39.5654 24.2728 39.6981 24.3402C40.0742 24.5422 40.2734 24.4973 40.6274 24.1493L40.9482 23.8237V21.5671V19.3104H42.6408C44.6763 19.3104 45.2515 19.1757 45.8378 18.5582C46.7007 17.6376 46.6454 18.2102 46.6786 10.0032C46.7007 4.91738 46.6675 2.48111 46.5901 2.05448C46.4352 1.30227 45.9263 0.606192 45.2736 0.258154L44.7869 -6.86646e-05H33.7575H22.7392L22.1418 0.359198ZM44.6652 2.03203C44.8643 2.25657 44.8754 2.57093 44.9086 9.41942C44.9196 13.3489 44.9086 16.6721 44.8754 16.818C44.8422 16.9528 44.7205 17.1661 44.5988 17.2896C44.3886 17.5029 44.2227 17.5141 42.0655 17.5141C39.0233 17.5141 39.2556 17.3233 39.1782 19.8493L39.1229 21.7579L36.1913 19.636L33.2597 17.5253L28.2705 17.5141C23.3919 17.5141 23.2702 17.5141 22.9826 17.2784L22.6949 17.0538V9.63274C22.6949 2.88528 22.7171 2.18921 22.883 1.99835C23.0489 1.80749 23.5357 1.79626 33.7575 1.79626H44.455L44.6652 2.03203Z" fill="#B8B8B8"/>
<path d="M25.3954 7.44267C25.0082 7.79071 24.9861 8.30715 25.3512 8.7001L25.6056 8.98077H33.7698C41.3698 8.98077 41.934 8.96955 42.1552 8.77869C42.2769 8.67764 42.4207 8.43065 42.4539 8.22856C42.5092 7.92543 42.465 7.81316 42.1884 7.52126L41.8565 7.18445H33.7698H25.6941L25.3954 7.44267Z" fill="#B8B8B8"/>
<path d="M25.4276 11.4738C25.1289 11.7208 24.9962 12.2148 25.151 12.5516C25.4276 13.1354 25.4718 13.1354 30.6823 13.1129C35.3618 13.0793 35.5277 13.068 35.7379 12.8547C36.0808 12.4955 36.0808 11.9004 35.749 11.5636C35.5388 11.3503 35.3839 11.3391 30.5717 11.3391C26.7772 11.3391 25.5714 11.3728 25.4276 11.4738Z" fill="#B8B8B8"/>
<path d="M36.7562 11.6307C36.369 12.1359 36.4686 12.6973 36.9775 12.9667C37.3536 13.1688 38.3603 13.18 38.7364 12.9892C39.1568 12.7759 39.3449 12.3043 39.1789 11.8889C38.9909 11.4286 38.7696 11.3388 37.8072 11.3388C37.0439 11.3388 36.9664 11.3612 36.7562 11.6307Z" fill="#B8B8B8"/>
<path d="M13.1157 4.53653C12.452 4.74985 11.9984 5.14279 11.6886 5.77151L11.4121 6.33286V13.2487C11.4121 18.256 11.4453 20.2768 11.5448 20.5575C11.7329 21.1301 12.0758 21.5455 12.629 21.8711C13.1047 22.163 13.2153 22.1742 14.8747 22.2079L16.6115 22.2528V24.24C16.6115 25.8791 16.6447 26.2721 16.7885 26.4742C17.0208 26.811 17.4301 26.9682 17.7509 26.8447C17.8837 26.7885 19.3993 25.7332 21.114 24.487L24.2336 22.2304H28.5591H32.8956L33.2164 21.9048C33.3934 21.7251 33.5372 21.4894 33.5372 21.3883C33.5372 21.1189 33.2385 20.58 33.0394 20.5014C32.9398 20.4677 30.7826 20.434 28.2493 20.434L23.6362 20.4453L21.0365 22.3314L18.4368 24.2175L18.3815 22.5447C18.3041 20.2993 18.47 20.434 15.7375 20.434C14.045 20.434 13.6246 20.4003 13.4255 20.2544L13.1821 20.086V13.3161C13.1821 7.15243 13.1932 6.52372 13.3702 6.38899C13.5029 6.2655 14.1777 6.22059 16.3792 6.19814C19.0895 6.16445 19.2223 6.15323 19.4546 5.92869C19.9192 5.49083 19.7533 4.71617 19.1448 4.50285C18.6359 4.32322 13.702 4.34567 13.1157 4.53653Z" fill="#B8B8B8"/>
<path d="M6.55551 21.8479C4.58638 22.3868 2.97124 24.0596 2.50661 26.058C1.67692 29.6619 4.35406 33.1198 7.98259 33.1198C9.60879 33.1198 10.7925 32.6259 11.9762 31.4358C13.1267 30.2906 13.6466 29.0107 13.6356 27.3604C13.6356 24.7332 11.9209 22.5103 9.40966 21.8367C8.6574 21.6234 7.3299 21.6346 6.55551 21.8479ZM9.65303 23.8351C12.5846 25.2834 12.6289 29.4037 9.73047 30.953C9.19947 31.2337 9.03353 31.2674 8.0379 31.2674C7.05333 31.2674 6.86527 31.2337 6.31214 30.953C5.54882 30.5825 4.85188 29.8415 4.46469 28.9883C4.21025 28.4494 4.166 28.1912 4.166 27.3941C4.166 26.5969 4.21025 26.3387 4.45363 25.8223C4.95144 24.7557 5.71476 24.0484 6.8542 23.6105C7.51796 23.3635 8.93397 23.4758 9.65303 23.8351Z" fill="#B8B8B8"/>
<path d="M47.2216 21.8367C45.8056 22.2296 44.29 23.4421 43.6816 24.6434C42.4979 27.0236 42.9293 29.7966 44.7547 31.5256C45.9384 32.6371 47.1221 33.1198 48.6929 33.1198C52.952 33.1086 55.6513 28.4943 53.649 24.6659C52.952 23.3411 51.536 22.2296 50.0758 21.8367C49.2903 21.6346 47.9518 21.6346 47.2216 21.8367ZM50.4408 23.9137C51.2595 24.3515 51.8237 24.9466 52.2219 25.811C52.4653 26.3387 52.5095 26.5969 52.5095 27.3941C52.5095 28.1912 52.4653 28.4494 52.2108 28.9883C51.8237 29.8415 51.1267 30.5825 50.3634 30.953C49.8213 31.2337 49.6222 31.2674 48.6929 31.2674C47.7858 31.2674 47.5535 31.2225 47.0225 30.9755C44.3232 29.6844 43.9914 25.8896 46.4251 24.1831C47.2327 23.6218 47.8079 23.4646 48.8589 23.4983C49.6111 23.5319 49.8435 23.5881 50.4408 23.9137Z" fill="#B8B8B8"/>
<path d="M5.99117 34.074C3.63484 34.523 1.6657 36.2857 0.82495 38.6995L0.515197 39.5752L0.48201 45.9971L0.448822 52.4302L0.725386 52.7108C1.11258 53.1038 1.68783 53.0926 1.99758 52.6996C2.2299 52.4077 2.2299 52.2954 2.2299 46.3788C2.2299 39.9569 2.26308 39.5415 2.79409 38.4862C3.10384 37.8799 4.1216 36.7909 4.70791 36.4429C5.76992 35.8254 7.01999 35.6121 8.18156 35.8591C9.46482 36.1285 10.1728 36.5888 11.4008 37.9361C11.9871 38.5872 12.6619 39.3394 12.9053 39.6089L13.3478 40.0916L16.0913 40.754C17.5847 41.1245 18.9676 41.495 19.1446 41.5961C19.3216 41.6859 19.576 41.9104 19.7088 42.1013C19.9632 42.4718 20.1291 43.2689 19.9743 43.3699C19.9189 43.4036 18.5583 43.3699 16.9431 43.2914L14.0115 43.1566L12.0866 42.1013C10.0401 40.9898 9.68607 40.8888 9.27676 41.3042L9.03338 41.5512V47.0524V52.5649L9.29888 52.7782C9.65288 53.0701 10.206 53.0589 10.5047 52.7333C10.7481 52.4751 10.7481 52.4414 10.7481 47.9506C10.7481 45.4694 10.7923 43.4485 10.8366 43.471C10.8808 43.4822 11.5114 43.8303 12.2305 44.2232L13.5469 44.9305L16.8214 45.0877C20.5163 45.2673 20.7265 45.2449 21.3571 44.5151C22.3748 43.325 21.5783 40.8326 19.9079 39.9569C19.6756 39.8334 18.3259 39.4629 16.921 39.1261L14.3434 38.4974L13.4584 37.5207C11.7658 35.6345 11.2348 35.1742 10.2724 34.7027C8.80106 33.9954 7.44037 33.7933 5.99117 34.074Z" fill="#B8B8B8"/>
<path d="M48.5273 34.0178C46.4586 34.3322 45.5183 34.9609 43.2172 37.5207L42.3322 38.5086L39.7657 39.1261C38.3497 39.4629 37.0001 39.8334 36.7678 39.9569C35.7832 40.4621 35.0088 41.6073 34.8982 42.73C34.8097 43.5496 34.9314 44.066 35.3186 44.5151C35.9491 45.2449 36.1593 45.2673 39.8653 45.0877L43.1398 44.9305L44.4452 44.2232C45.1753 43.8303 45.7948 43.4822 45.8391 43.471C45.8944 43.4485 45.9276 45.4694 45.9276 47.9618V52.5088L46.182 52.7445C46.6798 53.2161 47.4763 52.9691 47.6423 52.2954C47.6755 52.1495 47.6865 49.6795 47.6755 46.7942C47.6423 41.641 47.6423 41.5399 47.4099 41.3154C46.9896 40.8888 46.6245 40.9898 44.589 42.1125L42.6641 43.1679L39.7325 43.2914C38.1174 43.3699 36.7567 43.4036 36.7014 43.3699C36.5465 43.2689 36.7124 42.4718 36.9669 42.1013C37.0996 41.9104 37.343 41.6859 37.52 41.5961C37.697 41.5063 39.0688 41.1245 40.5843 40.7653L43.3279 40.0916L43.7704 39.6089C46.2373 36.8695 46.3701 36.746 47.0228 36.3867C50.0207 34.77 53.6161 36.4541 54.3241 39.8334C54.4015 40.2376 54.4457 42.3932 54.4457 46.4125C54.4457 52.2954 54.4457 52.4077 54.6781 52.6996C54.9878 53.0926 55.5631 53.1038 55.9503 52.7108L56.2268 52.4302L56.1936 45.9971L56.1604 39.5752L55.8507 38.6995C54.9989 36.252 53.0297 34.5118 50.6292 34.074C49.6667 33.8943 49.357 33.8943 48.5273 34.0178Z" fill="#B8B8B8"/>
<path d="M14.0554 46.132C13.7125 46.4912 13.6682 46.6933 13.8674 47.075C14.1439 47.6139 13.8121 47.5915 23.5029 47.6027H32.6627L32.9282 47.322C33.1052 47.1536 33.2047 46.9179 33.2047 46.7045C33.2047 46.4912 33.1052 46.2555 32.9282 46.0871L32.6627 45.8064H23.525H14.3762L14.0554 46.132Z" fill="#B8B8B8"/>
<path d="M34.2563 46.0871C34.0793 46.2555 33.9797 46.4912 33.9797 46.7045C33.9797 46.9179 34.0793 47.1536 34.2563 47.322C34.4886 47.5578 34.6213 47.6027 35.2408 47.6027C36.1258 47.6027 36.5573 47.3108 36.5573 46.7045C36.5573 46.0983 36.1258 45.8064 35.2408 45.8064C34.6213 45.8064 34.4886 45.8513 34.2563 46.0871Z" fill="#B8B8B8"/>
<path d="M38.0059 46.0646C37.7846 46.2555 37.7072 46.4351 37.7072 46.7045C37.7072 46.974 37.7846 47.1536 38.0059 47.3445C38.2935 47.5915 38.3709 47.6027 40.3401 47.6027H42.3645L42.6522 47.2547C43.0283 46.8056 43.0172 46.5361 42.619 46.132L42.2982 45.8064H40.2958C38.3709 45.8064 38.2935 45.8176 38.0059 46.0646Z" fill="#B8B8B8"/>
</svg>
