<svg width="53" height="53" viewBox="0 0 53 53" fill="none" xmlns="http://www.w3.org/2000/svg">
<g clip-path="url(#clip0_890_81)">
<path d="M44.1851 4.36601H33.6846C33.574 4.36601 33.4635 4.36601 33.353 4.42127C33.2424 4.31074 33.0766 4.14494 32.9661 4.03441L28.5448 0.663191C27.329 -0.221064 25.671 -0.221064 24.5104 0.663191L20.0892 4.03441C19.9234 4.14494 19.8128 4.25547 19.7023 4.36601H8.81492C5.7753 4.36601 3.28833 6.85297 3.28833 9.8926V12.1032C3.28833 13.5401 4.22785 14.756 5.49897 15.1981V47.4734C5.49897 50.6236 8.70439 53 11.5782 53H41.9745C45.0141 53 47.501 50.513 47.501 47.4734V15.2534C48.8274 14.756 49.7117 13.5401 49.7117 12.1032V9.8926C49.7117 6.85297 47.2247 4.36601 44.1851 4.36601ZM20.9734 6.68717C20.9734 6.30031 21.1392 6.02398 21.3603 5.80292L25.8368 2.37643C26.0026 2.21064 26.2789 2.15537 26.5 2.15537C26.7211 2.15537 26.9974 2.21064 27.2185 2.37643L31.6397 5.74765C31.9713 6.02398 32.0819 6.30031 32.0819 6.63191V7.68196C32.0819 8.28989 31.5845 8.78728 30.9765 8.78728H22.0787C21.4708 8.78728 20.9734 8.28989 20.9734 7.68196V6.68717ZM47.501 12.1032C47.501 12.7112 47.0589 13.098 46.6168 13.2086C46.6168 13.2086 46.5615 13.2086 46.5615 13.2638C46.5063 13.2638 46.451 13.2638 46.3957 13.2638C45.7878 13.2638 45.2904 13.7612 45.2904 14.3691V47.5287C45.2904 49.3525 43.7982 50.8446 41.9745 50.8446H11.5782C9.80971 50.8446 7.7096 49.3525 7.7096 47.5287V15.4192H29.2633C29.8712 15.4192 30.3686 14.9218 30.3686 14.3139C30.3686 13.7059 29.8712 13.2086 29.2633 13.2086H6.60428C5.99636 13.2086 5.49897 12.7112 5.49897 12.1032V9.8926C5.49897 8.06882 6.99115 6.57664 8.81492 6.57664H18.7628C18.7628 6.63191 18.7628 6.63191 18.7628 6.68717V7.68196C18.7628 9.50574 20.255 10.9979 22.0787 10.9979H30.9765C32.8003 10.9979 34.2925 9.50574 34.2925 7.68196V6.68717C34.2925 6.63191 34.2925 6.63191 34.2925 6.57664H44.1851C46.0089 6.57664 47.501 8.06882 47.501 9.8926V12.1032Z" fill="#D50032"/>
<path d="M39.2112 13.2085H37.5532C36.9453 13.2085 36.4479 13.7059 36.4479 14.3139C36.4479 14.9218 36.9453 15.4192 37.5532 15.4192H39.2112C39.8191 15.4192 40.3165 14.9218 40.3165 14.3139C40.3165 13.7059 39.8191 13.2085 39.2112 13.2085Z" fill="#D50032"/>
<path d="M14.3415 22.0511H13.2362C12.6283 22.0511 12.1309 22.5485 12.1309 23.1564C12.1309 23.7643 12.6283 24.2617 13.2362 24.2617H14.3415C14.9494 24.2617 15.4468 23.7643 15.4468 23.1564C15.4468 22.5485 14.9494 22.0511 14.3415 22.0511Z" fill="#D50032"/>
<path d="M14.3415 28.683H13.2362C12.6283 28.683 12.1309 29.1804 12.1309 29.7883C12.1309 30.3962 12.6283 30.8936 13.2362 30.8936H14.3415C14.9494 30.8936 15.4468 30.3962 15.4468 29.7883C15.4468 29.1804 14.9494 28.683 14.3415 28.683Z" fill="#D50032"/>
<path d="M19.3155 24.2617H34.7899C35.3978 24.2617 35.8952 23.7643 35.8952 23.1564C35.8952 22.5485 35.3978 22.0511 34.7899 22.0511H19.3155C18.7075 22.0511 18.2101 22.5485 18.2101 23.1564C18.2101 23.7643 18.7075 24.2617 19.3155 24.2617Z" fill="#D50032"/>
<path d="M37.5532 28.683H19.3155C18.7075 28.683 18.2101 29.1804 18.2101 29.7883C18.2101 30.3962 18.7075 30.8936 19.3155 30.8936H37.5532C38.1611 30.8936 38.6585 30.3962 38.6585 29.7883C38.6585 29.1804 38.1611 28.683 37.5532 28.683Z" fill="#D50032"/>
<path d="M14.3415 35.3149H13.2362C12.6283 35.3149 12.1309 35.8123 12.1309 36.4202C12.1309 37.0282 12.6283 37.5255 13.2362 37.5255H14.3415C14.9494 37.5255 15.4468 37.0282 15.4468 36.4202C15.4468 35.8123 14.9494 35.3149 14.3415 35.3149Z" fill="#D50032"/>
<path d="M31.474 35.3149H19.3155C18.7075 35.3149 18.2101 35.8123 18.2101 36.4202C18.2101 37.0282 18.7075 37.5255 19.3155 37.5255H31.474C32.0819 37.5255 32.5793 37.0282 32.5793 36.4202C32.5793 35.8123 32.0819 35.3149 31.474 35.3149Z" fill="#D50032"/>
</g>
<defs>
<clipPath id="clip0_890_81">
<rect width="53" height="53" fill="white"/>
</clipPath>
</defs>
</svg>
