<svg width="53" height="53" viewBox="0 0 53 53" fill="none" xmlns="http://www.w3.org/2000/svg">
<path d="M14.0471 0.207031L13.7676 0.424412V2.33945C13.7676 3.38496 13.7262 4.24414 13.6848 4.24414C13.6434 4.24414 13.074 4.06816 12.4219 3.84043C11.7697 3.62305 10.776 3.3332 10.2273 3.19863L9.21289 2.96054L8.9334 3.17793L8.64355 3.38496L8.6125 8.91269L8.5918 14.4508L7.25645 14.8234C6.52148 15.0305 5.43457 15.3928 4.82383 15.6309C3.74727 16.0553 3.41602 16.3037 3.41602 16.6867C3.41602 16.8523 3.3125 16.873 2.61895 16.873C1.24219 16.873 0.548633 17.1836 0.19668 17.9496C0.0103516 18.3533 0 18.902 0 30.5475C0 41.9963 0.0103516 42.7416 0.186328 42.9383C0.46582 43.2695 1.0248 43.2799 1.3457 42.959C1.55273 42.752 1.55273 42.6174 1.55273 30.7027C1.55273 20.4754 1.57344 18.6432 1.69766 18.5396C1.79082 18.4672 2.13242 18.4258 2.60859 18.4465L3.36426 18.4775L3.39531 33.9221L3.41602 49.3666L3.68516 49.5736L3.96465 49.791H26.5H49.0354L49.3148 49.5736L49.584 49.3666L49.6047 33.9221L49.6357 18.4775L50.4225 18.4465C51.0022 18.4258 51.2402 18.4568 51.323 18.5603C51.4162 18.6742 51.4369 22.7838 51.4266 35.0504L51.3955 51.3955L40.1227 51.4266C29.1397 51.4473 28.8395 51.4473 28.6324 51.2506C28.1355 50.7951 27.5041 50.5674 26.6346 50.5363C25.8893 50.4949 25.7133 50.526 25.1854 50.7744C24.8541 50.9193 24.4918 51.1367 24.3676 51.2506C24.1605 51.4473 23.9328 51.4473 12.8773 51.4266L1.60449 51.3955L1.55273 49.0871C1.50098 46.9443 1.49063 46.758 1.3043 46.6234C1.0041 46.4061 0.455469 46.4371 0.207031 46.6855C0.0103516 46.8822 0 47.0271 0 49.2217C0 51.3127 0.0207031 51.6025 0.19668 51.9441C0.434766 52.4203 0.672852 52.6377 1.16973 52.8447C1.50098 52.9793 2.93984 53 13.1361 53H24.7299L25.0715 52.7102C25.7236 52.1512 25.91 52.0684 26.5 52.0684C27.09 52.0684 27.2764 52.1512 27.9285 52.7102L28.2701 53H39.8639C50.0602 53 51.499 52.9793 51.8303 52.8447C52.3271 52.6377 52.5652 52.4203 52.8033 51.9441C52.9897 51.5715 53 51.0436 53 34.9676C53 19.0055 52.9897 18.3533 52.8033 17.9496C52.4617 17.1836 51.7578 16.873 50.4018 16.873H49.615L49.5529 16.5625C49.4701 16.1691 49.1803 15.9828 47.7311 15.4652L46.5303 15.0305L46.4992 12.3287L46.4785 9.6373L46.199 9.43027C45.992 9.2543 45.785 9.21289 45.2467 9.21289C44.3461 9.21289 42.3379 9.38887 41.0647 9.5752C36.4375 10.2584 31.5309 12.2666 28.032 14.9166C27.1418 15.5895 27.1832 15.6102 27.0693 14.5439C26.9762 13.633 26.5414 11.749 26.1688 10.6414C24.4711 5.49668 21.2 2.08066 16.4693 0.517578C14.8338 -0.0207062 14.4094 -0.0828133 14.0471 0.207031ZM17.2871 2.47402C18.9434 3.18828 20.641 4.44082 21.7797 5.79688C23.7361 8.11562 24.8852 10.8277 25.527 14.6475C25.6926 15.5687 25.7133 17.018 25.7443 28.208C25.765 35.0918 25.765 40.7023 25.734 40.6713C25.7029 40.6506 25.4131 40.0812 25.0715 39.4291C24.2537 37.8143 23.4463 36.6859 22.2041 35.4437C20.5893 33.8082 18.6121 32.6178 16.3141 31.8725L15.3203 31.5516V16.6557V1.77011L15.8586 1.93574C16.1588 2.01855 16.8006 2.26699 17.2871 2.47402ZM11.6145 5.21719C12.3701 5.46562 13.1672 5.74512 13.3846 5.83828L13.7676 6.00391V19.2332C13.7676 30.858 13.7883 32.4832 13.9229 32.6799C14.0264 32.8248 14.2748 32.949 14.6578 33.0215C14.9684 33.0836 15.6309 33.2803 16.1277 33.4459C20.1545 34.802 23.0322 37.7832 24.585 42.2344C24.9576 43.3109 25.4131 45.0189 25.3406 45.0914C25.3199 45.1121 24.999 44.7188 24.616 44.2219C21.2414 39.7396 16.5211 36.4271 11.3867 34.9365L10.1963 34.5949L10.1652 19.6783C10.1549 11.4695 10.1652 4.76172 10.1963 4.76172C10.2273 4.76172 10.8691 4.96875 11.6145 5.21719ZM44.9465 14.8959C44.9775 18.7881 44.9879 19.0365 45.1742 19.2436C45.433 19.523 45.992 19.5334 46.2715 19.2539C46.4578 19.0676 46.4785 18.9123 46.4785 17.8461C46.4785 16.7385 46.4889 16.6453 46.6648 16.7178C46.758 16.7592 47.11 16.8834 47.4412 16.9973L48.0312 17.2043V31.3342V45.4641L47.8035 45.4123C47.6689 45.3916 47.1203 45.2467 46.582 45.0914C45.2053 44.7084 43.1453 44.3357 41.5719 44.1908C39.957 44.0459 36.7895 44.1184 35.4541 44.3461C34.9469 44.4289 34.5121 44.491 34.4914 44.4703C34.4293 44.4082 36.0027 43.8285 37.276 43.4352C39.6361 42.7209 41.81 42.3586 44.4289 42.2447C45.8057 42.193 46.0748 42.1516 46.2611 41.9859C46.4785 41.7893 46.4785 41.7789 46.4785 32.5039C46.4785 23.7879 46.4682 23.1979 46.2922 22.9908C46.0438 22.6803 45.5055 22.6699 45.2053 22.9701L44.9775 23.1979L44.9465 31.9242L44.9258 40.6506L43.7354 40.723C38.1662 41.0336 32.4936 43.0418 28.2598 46.168C27.8043 46.5096 27.4109 46.7891 27.3799 46.7891C27.3488 46.7891 27.3281 40.2055 27.3281 32.152V17.5148L27.8768 17.0283C29.1604 15.9 31.3135 14.5129 33.2803 13.5605C36.5928 11.9561 40.8059 10.9209 44.5324 10.776L44.9154 10.7656L44.9465 14.8959ZM8.5918 25.8582C8.5918 34.9883 8.60215 35.5887 8.77813 35.7439C8.87129 35.8268 9.41992 36.0234 9.99961 36.1684C14.2023 37.2346 17.9186 39.367 21.0965 42.5449C22.0385 43.4869 23.5705 45.3088 24.0363 46.0437L24.233 46.3543L23.1357 45.8988C21.2518 45.1225 19.7715 44.7084 17.5459 44.3357C16.6453 44.1908 15.8586 44.1494 13.8193 44.1598C10.8691 44.1598 9.43027 44.3357 6.88379 44.9879C6.08672 45.1846 5.33105 45.3812 5.20684 45.4123L4.96875 45.4641V31.3342V17.2043L5.67266 16.9662C7.02871 16.5004 8.12598 16.1691 8.36406 16.1588L8.5918 16.1484V25.8582ZM16.2623 45.7539C18.726 46.0023 21.3035 46.7166 23.2703 47.6793L24.3779 48.2176L14.6785 48.2279L4.96875 48.2383V47.6793V47.1307L6.08672 46.7994C7.87754 46.2818 9.40957 45.9816 11.749 45.7125C12.484 45.6297 15.2789 45.6607 16.2623 45.7539ZM42.8969 45.9092C44.315 46.1369 45.609 46.4164 46.9236 46.7994L48.0312 47.1307V47.6793V48.2383L38.3318 48.2279L28.6221 48.2176L29.7297 47.6793C31.6137 46.758 34.2119 46.023 36.541 45.7643C37.8039 45.6193 41.665 45.7125 42.8969 45.9092Z" fill="#D50032"/>
</svg>
