<svg width="53" height="53" viewBox="0 0 53 53" fill="none" xmlns="http://www.w3.org/2000/svg">
<path d="M2.79128 0.165035C1.76224 0.537842 0.875841 1.46986 0.559997 2.51579C0.437735 2.94037 0.417358 6.43026 0.417358 27.587C0.417358 46.4241 0.447924 52.2233 0.53962 52.4304C0.773956 52.9586 0.998103 53 3.88145 53C6.7648 53 6.98894 52.9586 7.22328 52.4304C7.30479 52.2544 7.34554 51.5709 7.34554 50.5146V48.8577H26.4999H45.6543V50.5146C45.6543 52.3372 45.7256 52.6479 46.2147 52.8757C46.3981 52.9586 47.2947 53 49.1286 53C52.0323 53 52.2463 52.9586 52.4704 52.4097C52.5519 52.1923 52.5825 45.8856 52.5621 27.3696L52.5316 2.61934L52.2463 2.02907C51.8897 1.28345 51.2987 0.682819 50.5652 0.32037C50.0659 0.0718307 49.8622 0.0304108 49.1184 0.0304108C48.3848 0.0304108 48.1709 0.0718307 47.692 0.310013C46.9686 0.672466 46.3369 1.31452 45.9803 2.03942L45.7053 2.61934L45.6747 7.94219L45.6441 13.2754L45.1143 12.7473C43.6981 11.3492 42.0374 10.5001 40.1729 10.2308C39.6329 10.148 35.7918 10.1273 27.6105 10.148L15.8428 10.179L15.0786 10.5622C14.5692 10.8211 14.1413 11.1318 13.8152 11.4839L13.3364 12.012L13.0103 11.7013C12.287 11.0075 11.0643 10.5415 9.94361 10.5415C9.29154 10.5415 8.34401 10.79 7.78365 11.111L7.35573 11.3492L7.32516 6.98946L7.2946 2.61934L7.00932 2.02907C6.42858 0.817444 5.33841 0.0821877 4.05465 0.00969696C3.52485 -0.0213699 3.17844 0.0200539 2.79128 0.165035ZM4.60483 2.28796C4.79841 2.41223 5.03275 2.68148 5.12445 2.87824C5.29765 3.21998 5.30784 4.58693 5.30784 27.0796V50.9289H3.88145H2.45506V27.0278C2.45506 3.37531 2.45506 3.13713 2.65883 2.79539C3.09693 2.07049 3.96296 1.84266 4.60483 2.28796ZM49.8418 2.28796C50.0354 2.41223 50.2697 2.68148 50.3614 2.87824C50.5346 3.21998 50.5448 4.58693 50.5448 27.0796V50.9289H49.1184H47.692V27.0278C47.692 3.37531 47.692 3.13713 47.8958 2.79539C48.3339 2.07049 49.1999 1.84266 49.8418 2.28796ZM40.9778 12.5298C42.6996 13.1511 44.0547 14.3006 44.8087 15.7815C45.1958 16.5375 45.5524 17.542 45.5524 17.863C45.5524 17.9769 42.8219 17.9976 30.1168 17.9976H14.6813V16.0714C14.6813 14.8391 14.722 13.9796 14.8035 13.7103C14.9564 13.1926 15.6594 12.4573 16.128 12.3123C16.342 12.2502 20.9166 12.2191 28.3339 12.2295L40.2035 12.2502L40.9778 12.5298ZM11.1662 12.9026C11.6451 13.1511 12.1341 13.6586 12.399 14.166C12.6639 14.6734 12.6639 15.9368 12.399 16.4443C12.1341 16.9517 11.6451 17.4591 11.1662 17.718C10.8504 17.8941 10.5753 17.9458 9.99455 17.9458C9.12853 17.9458 8.63948 17.7387 8.09949 17.1484C7.54931 16.5582 7.39648 16.1646 7.39648 15.3051C7.39648 14.4456 7.54931 14.0521 8.09949 13.4618C8.41533 13.1097 8.81269 12.8612 9.28136 12.7058C9.69909 12.5609 10.7281 12.6748 11.1662 12.9026ZM45.6543 22.7613V25.4537H37.9518H30.2493L29.9029 25.8058C29.4342 26.2822 29.4342 26.6964 29.9029 27.1728L30.2493 27.5249H37.9518H45.6543V31.0666V34.6082L45.1245 34.0801C43.6981 32.682 42.0374 31.8329 40.1729 31.5636C39.6329 31.4808 35.7918 31.4601 27.6105 31.4808L15.8428 31.5118L15.0786 31.895C14.5692 32.1539 14.1413 32.4646 13.8152 32.8167L13.3364 33.3448L13.0103 33.0341C12.287 32.3403 11.0643 31.8743 9.94361 31.8743C9.29154 31.8743 8.34401 32.1228 7.78365 32.4439L7.34554 32.6924V30.1035V27.5249H14.9869C20.6823 27.5249 22.6894 27.4938 22.883 27.4006C23.3619 27.1831 23.5656 26.5515 23.3211 26.0233C23.0562 25.433 23.2905 25.4537 14.9869 25.4537H7.34554V22.7613V20.0688H26.4999H45.6543V22.7613ZM40.9778 33.8626C42.6996 34.4839 44.0547 35.6334 44.8087 37.1143C45.1958 37.8703 45.5524 38.8748 45.5524 39.1958C45.5524 39.3097 42.8219 39.3304 30.1168 39.3304H14.6813V37.4043C14.6813 36.1719 14.722 35.3124 14.8035 35.0432C14.9564 34.5254 15.6594 33.7901 16.128 33.6451C16.342 33.583 20.9166 33.5519 28.3339 33.5623L40.2035 33.583L40.9778 33.8626ZM11.1662 34.2354C11.6451 34.4839 12.1341 34.9914 12.399 35.4988C12.6639 36.0062 12.6639 37.2696 12.399 37.7771C12.1341 38.2845 11.6451 38.7919 11.1662 39.0508C10.8504 39.2269 10.5753 39.2786 9.99455 39.2786C9.12853 39.2786 8.63948 39.0715 8.09949 38.4813C7.54931 37.891 7.39648 37.4975 7.39648 36.6379C7.39648 35.7784 7.54931 35.3849 8.09949 34.7946C8.41533 34.4425 8.81269 34.194 9.28136 34.0386C9.69909 33.8937 10.7281 34.0076 11.1662 34.2354ZM45.6543 44.0941V46.7866H26.4999H7.34554V44.0941V41.4016H26.4999H45.6543V44.0941Z" fill="#D50032"/>
<path d="M26.0004 25.5994C25.114 26.0963 25.491 27.5248 26.4996 27.5248C27.0193 27.5248 27.5185 27.0176 27.5185 26.5C27.5185 25.7236 26.6728 25.2164 26.0004 25.5994Z" fill="#D50032"/>
</svg>
