<svg width="36" height="53" viewBox="0 0 36 53" fill="none" xmlns="http://www.w3.org/2000/svg">
<path d="M1.50739 0.248436C0.865515 0.558983 0.417219 1.14902 0.254202 1.89433C0.172694 2.28769 0.152317 8.12598 0.172694 22.7734C0.203259 45.3295 0.142128 43.4559 0.875703 44.1908C1.4157 44.7498 1.78248 44.8533 3.2802 44.9051L4.62509 44.9465L4.65565 48.1244C4.68622 51.1678 4.69641 51.3127 4.91037 51.7268C5.18546 52.2547 5.74583 52.7205 6.25526 52.8861C6.54053 52.9689 10.3307 53 20.183 53H33.7236L34.2432 52.7516C35.3028 52.2547 35.6085 51.4887 35.6085 49.377C35.6085 47.8035 35.5168 47.3895 35.1398 47.2135C34.7832 47.0479 34.6609 47.0686 34.3451 47.317L34.0802 47.524V49.1285C34.0802 50.7951 33.9885 51.2402 33.6217 51.3852C33.53 51.4162 27.4271 51.4473 20.0607 51.4473H6.6628L6.41827 51.1885L6.16356 50.94V30.5889V10.2273L6.45903 9.92715L6.76468 9.62695L20.1626 9.64766L33.5606 9.67871L33.7949 9.91679L34.0292 10.1549L34.0802 27.442C34.1311 44.4082 34.1311 44.7395 34.3247 44.8844C34.61 45.0914 35.0277 45.0604 35.313 44.8326L35.5575 44.6359V27.2557C35.5575 10.4033 35.5473 9.87539 35.3639 9.49238C35.1194 8.98515 34.6405 8.49863 34.1821 8.30195C33.9477 8.19844 33.3772 8.12598 32.4806 8.09492L31.1357 8.05351L31.1051 4.87558C31.0746 1.83223 31.0644 1.6873 30.8504 1.27324C30.5753 0.745312 30.0149 0.279491 29.5055 0.113865C29.2202 0.0310516 26.4591 0 19.6939 0C10.3103 0 10.2695 0 9.99445 0.217381C9.65823 0.486523 9.62766 1.01445 9.94351 1.30429C10.1473 1.49062 10.4733 1.50098 18.4 1.55273L26.6425 1.60449L16.3215 4.94804C10.4326 6.86308 5.84771 8.40547 5.63375 8.55039C5.42998 8.68496 5.12433 9.01621 4.9715 9.28535L4.68622 9.78223L4.65565 26.5828L4.63528 43.3937L3.41265 43.3523C2.3021 43.3213 2.16965 43.3006 1.96588 43.0832L1.73154 42.8451L1.70098 22.6389C1.69079 11.5316 1.70098 2.3291 1.73154 2.19453C1.76211 2.07031 1.87418 1.87363 1.98625 1.75977C2.17984 1.56308 2.33267 1.55273 4.67603 1.55273C6.94808 1.55273 7.18241 1.53203 7.39637 1.35605C7.72241 1.08691 7.72241 0.46582 7.39637 0.196678C7.18241 0.0207024 6.94808 0 4.59452 0C2.10852 0 2.02701 0.0103493 1.50739 0.248436ZM29.5972 5.17578V8.07422L20.7637 8.06387C15.8936 8.06387 11.9914 8.03281 12.0729 7.99141C12.2767 7.90859 29.424 2.3084 29.5259 2.28769C29.5666 2.27734 29.5972 3.58164 29.5972 5.17578Z" fill="#B8B8B8"/>
<path d="M9.38296 11.9043C9.21995 11.9561 8.97542 12.101 8.83278 12.2355C8.31317 12.7221 8.30298 12.8463 8.30298 17.1008C8.30298 20.8791 8.31317 21.0758 8.51694 21.4898C8.66977 21.8107 8.84297 21.9867 9.15882 22.142C9.57655 22.349 9.75994 22.3594 13.815 22.3594C18.5221 22.3594 18.5017 22.3594 18.9704 21.6451C19.2047 21.2932 19.2047 21.2932 19.2047 17.0904C19.2047 13.1051 19.1945 12.867 19.001 12.5564C18.5832 11.8525 18.6036 11.8525 13.9067 11.8318C11.5837 11.8215 9.54598 11.8525 9.38296 11.9043ZM17.6764 17.0801V20.8066H13.7539H9.83126V17.1525C9.83126 15.134 9.86183 13.457 9.90258 13.426C9.93315 13.3846 11.706 13.3535 13.8252 13.3535H17.6764V17.0801Z" fill="#B8B8B8"/>
<path d="M21.3851 14.9477C20.8961 15.165 20.7738 15.724 21.1406 16.1277L21.3546 16.3555H26.4285C31.3801 16.3555 31.5024 16.3555 31.6857 16.1484C31.9405 15.8586 31.9201 15.3617 31.645 15.0822C31.4208 14.8545 31.4208 14.8545 26.5609 14.8338C22.6383 14.8131 21.6398 14.8338 21.3851 14.9477Z" fill="#B8B8B8"/>
<path d="M21.1614 18.0427C20.8863 18.3429 20.8761 18.7362 21.1308 19.0571C21.3244 19.3055 21.3652 19.3055 23.3621 19.3366C25.3795 19.3677 25.3998 19.3677 25.6749 19.1192C26.0417 18.7983 26.0723 18.2704 25.7361 17.9909C25.5221 17.8253 25.2878 17.8046 23.4436 17.8046C21.4161 17.8046 21.3754 17.8046 21.1614 18.0427Z" fill="#B8B8B8"/>
<path d="M8.92448 26.0549C8.31317 26.5518 8.30298 26.6035 8.30298 30.9822C8.30298 34.8848 8.30298 34.9469 8.53732 35.4023C8.95505 36.2408 8.87354 36.2305 13.7539 36.2305C18.5221 36.2305 18.5017 36.2305 18.9704 35.5162C19.2047 35.1643 19.2047 35.1539 19.2047 30.9822C19.2047 26.3654 19.2047 26.3758 18.5628 25.9824C18.2572 25.7857 18.0229 25.7754 13.7539 25.7754H9.27089L8.92448 26.0549ZM17.6764 31.0029V34.6777H13.7539H9.83126V31.0029V27.3281H13.7539H17.6764V31.0029Z" fill="#B8B8B8"/>
<path d="M21.1404 29.005C20.7125 29.4708 20.9876 30.154 21.6702 30.2782C21.8536 30.3093 24.1257 30.33 26.7136 30.3093C31.4105 30.2782 31.4309 30.2782 31.6448 30.0505C31.9199 29.771 31.9403 29.2741 31.6856 28.9843C31.5022 28.7772 31.3799 28.7772 26.4283 28.7772H21.3544L21.1404 29.005Z" fill="#B8B8B8"/>
<path d="M21.1915 31.9346C21.0488 32.0691 20.9368 32.3072 20.9368 32.4521C20.9368 32.5971 21.0488 32.8352 21.1915 32.9697C21.436 33.2285 21.4564 33.2285 23.3718 33.2285C25.491 33.2285 25.7559 33.1768 25.919 32.6902C26.0412 32.3383 25.8578 31.8518 25.5726 31.7379C25.4809 31.7068 24.5129 31.6758 23.4228 31.6758C21.4462 31.6758 21.436 31.6758 21.1915 31.9346Z" fill="#B8B8B8"/>
<path d="M9.00599 39.0564C8.30298 39.5326 8.30298 39.5533 8.30298 43.9941C8.30298 47.9277 8.30298 47.9898 8.53732 48.4453C8.95505 49.2838 8.87354 49.2734 13.7539 49.2734C18.5221 49.2734 18.5017 49.2734 18.9704 48.5592C19.2047 48.2072 19.2047 48.1969 19.2047 44.0252C19.2047 39.4084 19.2047 39.4187 18.5628 39.0254C18.2572 38.8287 18.0229 38.8184 13.7946 38.8184H9.3524L9.00599 39.0564ZM17.6764 44.0459V47.7207H13.7539H9.83126V44.0459V40.3711H13.7539H17.6764V44.0459Z" fill="#B8B8B8"/>
<path d="M21.1404 42.0476C20.743 42.4824 20.9774 43.1759 21.5683 43.3209C21.7008 43.3519 23.9728 43.3623 26.6117 43.3519C31.4105 43.3209 31.4308 43.3209 31.6448 43.0931C31.9199 42.8136 31.9403 42.3168 31.6855 42.0269C31.5022 41.8199 31.3799 41.8199 26.4283 41.8199H21.3544L21.1404 42.0476Z" fill="#B8B8B8"/>
<path d="M21.1915 44.9775C21.0488 45.1121 20.9368 45.3502 20.9368 45.4951C20.9368 45.64 21.0488 45.8781 21.1915 46.0127C21.436 46.2715 21.4462 46.2715 23.4533 46.2715C25.6235 46.2611 25.7254 46.2404 25.9292 45.7125C26.0412 45.3916 25.8578 44.8947 25.5726 44.7809C25.4809 44.7498 24.5129 44.7188 23.4228 44.7188C21.4462 44.7188 21.436 44.7188 21.1915 44.9775Z" fill="#B8B8B8"/>
</svg>
