<svg width="57" height="57" viewBox="0 0 57 57" fill="none" xmlns="http://www.w3.org/2000/svg">
<path d="M8.14288 10.6875C8.14288 7.03356 11.105 4.07143 14.759 4.07143H42.2411C45.895 4.07143 48.8572 7.03354 48.8572 10.6875V35.3781C48.6121 35.5419 48.3794 35.7323 48.163 35.9487L45.8036 38.3081V10.6875C45.8036 8.71998 44.2086 7.125 42.2411 7.125H14.759C12.7914 7.125 11.1965 8.71998 11.1965 10.6875V46.3119C11.1965 48.2794 12.7914 49.8744 14.759 49.8744H31.1825L34.2361 52.928H14.759C11.105 52.928 8.14288 49.9658 8.14288 46.3119V10.6875Z" fill="#D50032"/>
<path d="M21.375 17.8125C21.375 19.2179 20.2357 20.3571 18.8303 20.3571C17.425 20.3571 16.2857 19.2179 16.2857 17.8125C16.2857 16.4071 17.425 15.2679 18.8303 15.2679C20.2357 15.2679 21.375 16.4071 21.375 17.8125Z" fill="#D50032"/>
<path d="M18.8303 31.0442C20.2357 31.0442 21.375 29.905 21.375 28.4996C21.375 27.0943 20.2357 25.9549 18.8303 25.9549C17.425 25.9549 16.2857 27.0943 16.2857 28.4996C16.2857 29.905 17.425 31.0442 18.8303 31.0442Z" fill="#D50032"/>
<path d="M18.8303 41.7321C20.2357 41.7321 21.375 40.593 21.375 39.1875C21.375 37.782 20.2357 36.6429 18.8303 36.6429C17.425 36.6429 16.2857 37.782 16.2857 39.1875C16.2857 40.593 17.425 41.7321 18.8303 41.7321Z" fill="#D50032"/>
<path d="M25.9554 16.2857C25.1122 16.2857 24.4286 16.9693 24.4286 17.8125C24.4286 18.6557 25.1122 19.3393 25.9554 19.3393H39.1875C40.0307 19.3393 40.7143 18.6557 40.7143 17.8125C40.7143 16.9693 40.0307 16.2857 39.1875 16.2857H25.9554Z" fill="#D50032"/>
<path d="M24.4286 28.4996C24.4286 27.6564 25.1122 26.9728 25.9554 26.9728H39.1875C40.0307 26.9728 40.7143 27.6564 40.7143 28.4996C40.7143 29.3428 40.0307 30.0264 39.1875 30.0264H25.9554C25.1122 30.0264 24.4286 29.3428 24.4286 28.4996Z" fill="#D50032"/>
<path d="M25.9554 37.6607C25.1122 37.6607 24.4286 38.3443 24.4286 39.1875C24.4286 40.0307 25.1122 40.7143 25.9554 40.7143H39.1875C40.0307 40.7143 40.7143 40.0307 40.7143 39.1875C40.7143 38.3443 40.0307 37.6607 39.1875 37.6607H25.9554Z" fill="#D50032"/>
<path d="M52.4813 40.267L40.267 52.4813C39.9808 52.7677 39.5924 52.9286 39.1875 52.9286C38.7826 52.9286 38.3942 52.7677 38.108 52.4813L32.0047 46.3783C31.4084 45.782 31.4084 44.8152 32.0047 44.219C32.601 43.6227 33.5677 43.6227 34.164 44.219L39.1875 49.2425L50.3223 38.108C50.9185 37.5117 51.8851 37.5117 52.4813 38.108C53.0776 38.7042 53.0776 39.6708 52.4813 40.267Z" fill="#D50032"/>
</svg>
