<svg width="49" height="53" viewBox="0 0 49 53" fill="none" xmlns="http://www.w3.org/2000/svg">
<path d="M22.7402 0.113865C16.2912 0.828125 10.867 5.65195 9.40742 11.9664C9.05547 13.4881 8.97266 14.7199 8.97266 18.6639C8.97266 22.8355 9.00371 23.115 9.6248 23.9328C9.81113 24.1812 10.2045 24.5125 10.4943 24.6885L11.0223 24.999L11.0637 25.9824C11.1154 27.1521 11.3328 27.7215 11.9746 28.3633C12.5854 28.974 13.1961 29.2225 14.2312 29.2742L15.0904 29.326L15.3596 29.8539C15.7115 30.5578 16.1463 31.1893 16.757 31.9035L17.2643 32.4936L16.3844 34.243L15.5045 35.9924L12.5232 36.9965C8.61035 38.3215 7.44062 38.9426 5.53594 40.7645C2.9584 43.2385 1.39531 46.3025 0.84668 49.9463C0.763867 50.5156 0.691406 51.2713 0.691406 51.6232C0.691406 52.1926 0.732812 52.3168 0.991602 52.6066L1.2918 52.9482L24.4379 52.9793L47.584 53L47.9152 52.7102C48.1947 52.4514 48.2465 52.3271 48.2879 51.7889C48.3086 51.4576 48.2568 50.6605 48.1637 50.0291C47.615 46.3232 46.0623 43.2592 43.4641 40.7645C41.5594 38.9426 40.3896 38.3215 36.4768 36.9965L33.4955 35.9924L32.6156 34.243L31.7357 32.4936L32.243 31.9035C33.5473 30.3818 34.4168 28.5496 34.7895 26.5518C34.8826 26.0342 34.9861 25.5166 35.0068 25.4027C35.0586 25.1854 35.1207 25.175 36.3732 25.1336C37.4498 25.1025 37.7914 25.0508 38.1744 24.8748C38.7955 24.5953 39.4684 23.9225 39.7582 23.3014C39.9652 22.8459 39.9756 22.6596 40.0066 18.9951C40.0273 16.6764 39.9963 14.7199 39.9238 14.0264C39.5615 10.393 38.102 7.27715 35.5451 4.66855C32.1912 1.24219 27.5123 -0.414066 22.7402 0.113865ZM27.0361 2.3291C29.8311 2.90879 32.0152 4.08887 33.982 6.04531C36.1455 8.20879 37.4291 10.8174 37.8328 13.84L37.926 14.4922H36.9219H35.9281L35.7936 13.4363C35.3484 9.82363 33.2264 6.82168 30.007 5.22754C28.3508 4.40976 26.9844 4.14062 24.5 4.14062C22.0156 4.14062 20.6492 4.40976 18.993 5.22754C15.7736 6.82168 13.6516 9.82363 13.2064 13.4363L13.0719 14.4922H12.0678C11.1672 14.4922 11.0637 14.4715 11.0947 14.3059C11.1154 14.2127 11.1879 13.7572 11.25 13.3018C11.5088 11.5834 12.2334 9.74082 13.3307 8.06387C14.0863 6.90449 15.815 5.15508 16.9227 4.42012C18.5168 3.3539 20.5871 2.52578 22.2227 2.28769C22.6471 2.22559 23.1129 2.15312 23.2578 2.13242C23.7961 2.03926 26.2391 2.16348 27.0361 2.3291ZM26.9016 6.35586C28.4232 6.65605 29.5205 7.16328 30.7213 8.12598C32.5846 9.62695 33.6508 11.8111 33.7854 14.368L33.8475 15.5377L33.392 15.4652C32.1602 15.2893 30.3383 14.8752 29.5102 14.5854C27.4916 13.8814 25.2971 12.6082 23.8789 11.3143C22.9266 10.4551 22.7609 10.3516 22.2227 10.3516C21.1771 10.3516 19.3346 10.807 18.3512 11.3039C17.492 11.7387 16.5604 12.4012 15.9186 13.0533L15.2561 13.7158L15.3182 13.2189C15.4941 11.9353 16.2602 10.3205 17.2436 9.13008C18.3926 7.75332 20.2766 6.67676 22.1709 6.3248C23.0197 6.16953 26.0424 6.19023 26.9016 6.35586ZM22.5021 12.867C25.266 15.31 28.6406 16.842 32.6156 17.432C33.1746 17.5148 33.6611 17.608 33.6818 17.6391C33.7646 17.7219 33.5266 20.7031 33.2988 22.6078C32.7398 27.1521 32.2637 28.6014 30.742 30.4854C29.7586 31.6965 28.092 32.7834 26.5703 33.1975C25.6387 33.4562 23.3613 33.4562 22.4297 33.1975C20.7941 32.7523 19.0758 31.5826 18.0096 30.1748C17.7094 29.7814 17.4609 29.4191 17.4609 29.3777C17.4609 29.326 17.9164 29.2949 18.4754 29.2949L19.4795 29.3053L19.79 29.8332C20.173 30.5061 20.8148 31.0029 21.5602 31.2203C22.44 31.4688 25.1004 31.3963 25.7525 31.0857C26.3736 30.8062 27.0465 30.1334 27.326 29.5123C27.6365 28.8498 27.6365 27.6697 27.326 27.0072C27.0465 26.3861 26.3736 25.7133 25.7525 25.4338C25.1004 25.1232 22.44 25.0508 21.5602 25.2992C20.8148 25.5166 20.173 26.0135 19.79 26.6863L19.4795 27.2143L17.9578 27.2246C17.109 27.2246 16.4258 27.1936 16.4258 27.1418C16.4258 27.1004 16.3533 26.7381 16.2705 26.3447C15.9082 24.585 15.4527 20.7445 15.3285 18.4258L15.2664 17.1318L16.0842 16.0449C16.5396 15.4445 17.2229 14.6682 17.6059 14.3162C18.7342 13.2811 20.318 12.5875 21.8811 12.4322C21.9535 12.4322 22.233 12.6186 22.5021 12.867ZM13.1547 17.049C13.1857 17.3285 13.2375 18.1049 13.2686 18.7881C13.31 19.4713 13.4031 20.6307 13.4859 21.376C13.5584 22.1109 13.6309 22.8045 13.6309 22.908C13.6309 23.084 13.548 23.1047 12.6475 23.0633C11.7365 23.0322 11.6434 23.0115 11.3846 22.7424L11.0947 22.4629L11.0637 19.5127L11.0326 16.5625H12.0678H13.0926L13.1547 17.049ZM37.9363 19.5127L37.9053 22.4629L37.6154 22.7424C37.3566 23.0115 37.2635 23.0322 36.3525 23.0633C35.452 23.1047 35.3691 23.084 35.3691 22.908C35.3691 22.8045 35.4416 22.1109 35.5141 21.376C35.5969 20.6307 35.69 19.4506 35.7314 18.7363C35.7625 18.0221 35.8143 17.2457 35.8453 16.9973L35.8971 16.5625H36.9322H37.9674L37.9363 19.5127ZM13.9932 25.382C14.0139 25.5166 14.0863 25.91 14.1484 26.2723C14.2105 26.6346 14.2934 26.9969 14.3244 27.09C14.4279 27.3488 13.7447 27.1729 13.4238 26.8623C13.2168 26.6449 13.165 26.4793 13.134 25.8789L13.0926 25.1543H13.517C13.8689 25.1543 13.9414 25.1957 13.9932 25.382ZM25.1936 27.5559C25.618 27.9906 25.5973 28.591 25.1314 29.0051L24.7898 29.3156L23.4027 29.2742C22.0777 29.2432 22.0053 29.2328 21.7568 28.974C21.3738 28.6014 21.3117 28.0734 21.6016 27.7111C21.9535 27.2764 22.1502 27.2246 23.5891 27.2557C24.8727 27.2764 24.9141 27.2867 25.1936 27.5559ZM30.9801 35.5162L31.6633 36.8826L31.3838 37.659C31.0111 38.6941 30.2762 40.4229 29.7586 41.4477L29.3445 42.2654L27.5951 40.516L25.8457 38.7666L26.2908 38.3008C26.5393 38.042 27.5227 37.0068 28.475 35.9924C29.4377 34.9883 30.2348 34.1602 30.2555 34.1602C30.2762 34.1602 30.5971 34.7709 30.9801 35.5162ZM21.3221 40.5471C20.4318 41.4787 19.6865 42.2344 19.6658 42.2344C19.5727 42.2344 18.3098 39.4705 17.8232 38.2076L17.3264 36.9344L17.9371 35.7025L18.5375 34.4707L20.7424 36.6652L22.9369 38.8494L21.3221 40.5471ZM24.6139 35.4541H26.1355L25.2971 36.334C24.8312 36.8205 24.4275 37.2242 24.3965 37.2449C24.3654 37.2553 23.8996 36.8205 23.3613 36.2822C22.4193 35.3402 22.3986 35.2988 22.7402 35.3713C22.9369 35.423 23.7857 35.4541 24.6139 35.4541ZM16.1152 39.543C17.2125 42.2758 18.6928 44.9982 20.6182 47.8242C21.1461 48.5902 21.8086 49.6047 22.1088 50.0809L22.6367 50.9297H12.7199H2.79277L2.88594 50.2258C3.43457 46.0955 6.02246 42.2551 9.54199 40.3504C10.3287 39.926 15.1939 38.1869 15.4734 38.2283C15.5459 38.2387 15.8357 38.8287 16.1152 39.543ZM36.0316 39.0254C37.3877 39.4809 38.868 40.0502 39.3338 40.2883C42.8947 42.1412 45.5654 46.0437 46.1141 50.2258L46.2072 50.9297H36.2801H26.3633L26.8912 50.0809C27.1914 49.6047 27.8539 48.5902 28.3818 47.8242C30.2658 45.0604 31.6322 42.576 32.6984 39.957C33.0193 39.191 33.2988 38.4768 33.3299 38.3732C33.3713 38.2801 33.4334 38.1973 33.4852 38.1973C33.5369 38.1973 34.6756 38.5699 36.0316 39.0254ZM26.3322 42.2551C27.3777 43.3006 28.2266 44.1908 28.2266 44.2426C28.2266 44.2943 27.7297 45.0811 27.1189 45.9816C26.4979 46.8926 25.6904 48.1348 25.2971 48.7352C24.9141 49.3459 24.5518 49.8428 24.5 49.8428C24.4482 49.8428 24.0859 49.3459 23.7029 48.7352C23.3096 48.1348 22.4918 46.8822 21.8707 45.9713C21.26 45.05 20.7734 44.2426 20.8045 44.1701C20.8666 44.0148 24.293 40.3711 24.3861 40.3711C24.4172 40.3711 25.2971 41.2199 26.3322 42.2551Z" fill="#D50032"/>
<path d="M35.5141 41.0957C35.1828 41.2303 34.8516 41.7064 34.8516 42.0377C34.8516 42.4518 35.3277 42.9486 35.7936 43.0211C36.1145 43.0729 36.2283 43.0314 36.5182 42.7727C36.808 42.5139 36.8701 42.3896 36.8701 42.0273C36.8701 41.665 36.808 41.5408 36.5285 41.2924C36.1869 40.9922 35.9074 40.9301 35.5141 41.0957Z" fill="#D50032"/>
<path d="M39.1475 43.0521C38.7748 43.2074 38.5264 43.5801 38.5264 43.9941C38.5264 44.3564 38.6195 44.4807 39.5201 45.4123C40.0791 45.992 40.7002 46.758 40.959 47.1824C41.4559 48.0312 41.8182 48.29 42.3564 48.1969C42.7498 48.1244 42.9982 47.876 43.1225 47.4309C43.2984 46.8305 42.3979 45.3398 41.0521 44.0045C40.0688 43.0211 39.6961 42.8348 39.1475 43.0521Z" fill="#D50032"/>
</svg>
