<svg width="44" height="53" viewBox="0 0 44 53" fill="none" xmlns="http://www.w3.org/2000/svg">
<path d="M9.77592 0.144596C8.51129 0.548706 7.81779 1.48127 7.64441 3.00444L7.57302 3.62615H7.15488C6.55316 3.62615 5.76787 3.8852 5.28854 4.2375C4.7888 4.60016 4.25848 5.40838 4.17689 5.9161L4.1157 6.28913L3.45279 6.3513C2.22896 6.47564 1.27029 7.11807 0.75016 8.16461L0.515593 8.65161L0.484997 22.1841L0.4646 35.7166L0.67877 35.986C0.913338 36.3072 1.41307 36.359 1.74962 36.1207C1.9434 35.9756 1.9434 35.6855 1.99439 22.4535C2.04538 8.99355 2.04538 8.92102 2.25955 8.64125C2.59611 8.17497 2.93266 7.9781 3.50378 7.90556L4.03411 7.8434L4.05451 27.8831L4.0851 47.9227L4.30947 48.4201C4.74801 49.3734 5.34973 49.9122 6.288 50.192C6.78773 50.3474 7.89938 50.3577 16.8741 50.337L26.8994 50.3059L27.0931 50.0573C27.3583 49.7257 27.3379 49.3008 27.0523 49.0314L26.8178 48.8035L16.711 48.7828C6.67554 48.7517 6.59396 48.7517 6.31859 48.5341C6.16561 48.4201 5.94125 48.1921 5.82906 48.0367L5.61489 47.7569V27.0127C5.61489 6.77613 5.61489 6.25804 5.80866 5.93683C6.06363 5.51199 6.66535 5.18042 7.17528 5.18042H7.59342L7.62401 7.44965C7.65461 9.51164 7.67501 9.7396 7.84838 9.93647C8.07275 10.1955 8.59288 10.2266 8.88864 10.009C9.07221 9.86394 9.08241 9.66706 9.13341 6.24768C9.1946 2.20659 9.1946 2.20659 9.94929 1.77139C10.3368 1.5538 10.3572 1.5538 21.4023 1.5538H32.478L32.5086 5.04572L32.5392 8.54799L32.8145 9.07644C33.1307 9.68779 33.6712 10.1955 34.3137 10.5064C34.7523 10.7136 34.9766 10.724 38.179 10.7551L41.5649 10.7861L41.5445 27.4582C41.5139 44.1096 41.5139 44.1303 41.2998 44.4101C41.1876 44.5655 40.9632 44.7935 40.8102 44.9075C40.5349 45.1251 40.5247 45.1251 25.3492 45.1251C10.1737 45.1251 10.1635 45.1251 9.8881 44.9075C9.73512 44.7935 9.51075 44.5655 9.39857 44.4101C9.1844 44.1303 9.1844 44.0992 9.1538 28.2872L9.13341 12.444L8.85804 12.2368C8.55209 11.9881 8.4297 11.9674 8.06255 12.1435C7.89938 12.2161 7.76679 12.3922 7.6954 12.6305C7.62401 12.8792 7.60362 18.029 7.62401 28.6498L7.65461 44.2961L7.88918 44.8142C8.19513 45.4877 8.82745 46.1405 9.48016 46.441L10.0003 46.6793L24.0132 46.7104L38.026 46.7311L37.9648 47.2803C37.8934 47.8502 37.6997 48.1921 37.2407 48.5341C36.9756 48.7413 36.8022 48.7517 33.1817 48.8035C29.602 48.8553 29.4082 48.8657 29.2654 49.0522C29.0615 49.3423 29.0921 49.7671 29.3164 50.0573C29.5102 50.3059 29.5306 50.3059 31.9171 50.337C33.2429 50.3577 34.3239 50.3888 34.3239 50.4199C34.3239 50.6375 33.9058 51.1349 33.5896 51.3007C33.2225 51.4872 32.7635 51.4975 18.1898 51.4975C3.84033 51.4975 3.14683 51.4872 2.81028 51.311C2.58591 51.1867 2.36154 50.9484 2.22896 50.6686L1.99439 50.2127V44.3894V38.5557L1.72923 38.3485C1.57625 38.2241 1.35188 38.1309 1.2193 38.1309C0.933735 38.1309 0.597181 38.4417 0.515593 38.7733C0.484997 38.908 0.4646 41.6435 0.484997 44.866L0.515593 50.7204L0.801153 51.311C1.10711 51.9431 1.55585 52.399 2.22896 52.7617L2.6573 53H18.1694H33.6712L34.2729 52.6891C34.9868 52.3161 35.5784 51.5908 35.7619 50.8655L35.8843 50.3785L36.5166 50.3267C38.1688 50.2023 39.311 49.0522 39.4844 47.3839L39.5558 46.7622L40.1677 46.6897C41.3508 46.5653 42.2992 45.9125 42.8092 44.8867L43.0437 44.3997V27.0127V9.63598L38.3014 4.81776L33.559 -0.000469208L21.8816 0.00989151C12.5703 0.00989151 10.1227 0.0409775 9.77592 0.144596ZM37.873 9.20079C35.3846 9.22151 35.2928 9.22151 34.8441 8.99355C34.0486 8.58944 34.018 8.4651 34.018 5.33585V2.64178L37.2305 5.90574L40.4431 9.1697L37.873 9.20079Z" fill="#B8B8B8"/>
<path d="M14.7021 17.0035C14.3655 17.2729 14.3349 17.8221 14.6409 18.133C14.8449 18.3402 14.9774 18.3402 25.3392 18.3402C35.1809 18.3402 35.8438 18.3298 36.0376 18.1537C36.1599 18.0604 36.2823 17.8532 36.3231 17.6978C36.3741 17.4698 36.3231 17.3558 36.0783 17.0968L35.7724 16.7859H25.3698C15.008 16.7859 14.9774 16.7859 14.7021 17.0035Z" fill="#B8B8B8"/>
<path d="M14.6409 22.7953C14.3349 23.1061 14.3655 23.6553 14.7021 23.9247C14.9774 24.1423 15.008 24.1423 25.3086 24.1423C32.774 24.1423 35.7112 24.1112 35.8948 24.0283C36.4149 23.79 36.4557 22.9611 35.9662 22.702C35.8336 22.6191 32.4782 22.588 25.3086 22.588C14.9774 22.588 14.8449 22.588 14.6409 22.7953Z" fill="#B8B8B8"/>
<path d="M14.9462 28.3591C14.6096 28.4834 14.4362 28.7425 14.4362 29.1155C14.4362 29.903 13.5693 29.8408 25.3691 29.8408C35.8125 29.8408 35.9247 29.8408 36.1082 29.6336C36.3632 29.3435 36.3428 28.8461 36.0674 28.5663L35.8431 28.3384L25.4711 28.3177C19.7701 28.3073 15.0277 28.328 14.9462 28.3591Z" fill="#B8B8B8"/>
</svg>
