<svg width="30" height="30" viewBox="0 0 30 30" fill="none" xmlns="http://www.w3.org/2000/svg">
<path d="M2.81526 0.122577C1.61656 0.446905 0.680293 1.41989 0.361112 2.65234C0.205069 3.26496 0.205069 10.5876 0.361112 11.2002C0.680293 12.4471 1.62365 13.4128 2.84363 13.7372C3.4678 13.8957 10.66 13.8957 11.2842 13.7372C12.5042 13.4128 13.4475 12.4471 13.7667 11.2002C13.9227 10.5876 13.9227 3.26496 13.7667 2.65234C13.4475 1.40548 12.5042 0.439698 11.2842 0.11537C10.6813 -0.043191 3.39687 -0.035984 2.81526 0.122577ZM11.0785 2.50098C11.1849 2.58027 11.3409 2.73882 11.4189 2.84693C11.5679 3.04153 11.5679 3.12081 11.5679 6.92626C11.5679 10.7317 11.5679 10.811 11.4189 11.0056C11.3409 11.1137 11.1849 11.2723 11.0785 11.3515C10.887 11.5029 10.809 11.5029 7.0639 11.5029C3.31885 11.5029 3.24083 11.5029 3.04932 11.3515C2.94293 11.2723 2.78688 11.1137 2.70886 11.0056C2.567 10.811 2.55991 10.7173 2.53863 7.12086C2.52445 5.0884 2.53863 3.32982 2.55991 3.20009C2.60956 2.9118 2.90746 2.54423 3.19827 2.4145C3.3685 2.33522 4.14872 2.3208 7.14902 2.33522C10.7948 2.34963 10.887 2.34963 11.0785 2.50098Z" fill="#8D8D8D"/>
<path d="M18.7036 0.122577C17.5049 0.446905 16.5687 1.41989 16.2495 2.65234C16.0934 3.26496 16.0934 10.5876 16.2495 11.2002C16.5687 12.4471 17.512 13.4128 18.732 13.7372C19.3562 13.8957 26.5484 13.8957 27.1725 13.7372C28.3925 13.4128 29.3359 12.4471 29.6551 11.2002C29.8111 10.5876 29.8111 3.26496 29.6551 2.65234C29.3359 1.40548 28.3925 0.439698 27.1725 0.11537C26.5696 -0.043191 19.2852 -0.035984 18.7036 0.122577ZM26.9668 2.50098C27.0732 2.58027 27.2293 2.73882 27.3073 2.84693C27.4563 3.04153 27.4563 3.12081 27.4563 6.92626C27.4563 10.7317 27.4563 10.811 27.3073 11.0056C27.2293 11.1137 27.0732 11.2723 26.9668 11.3515C26.7753 11.5029 26.6973 11.5029 22.9523 11.5029C19.2072 11.5029 19.1292 11.5029 18.9377 11.3515C18.8313 11.2723 18.6753 11.1137 18.5972 11.0056C18.4554 10.811 18.4483 10.7173 18.427 7.12086C18.4128 5.0884 18.427 3.32982 18.4483 3.20009C18.4979 2.9118 18.7958 2.54423 19.0866 2.4145C19.2569 2.33522 20.0371 2.3208 23.0374 2.33522C26.6831 2.34963 26.7753 2.34963 26.9668 2.50098Z" fill="#8D8D8D"/>
<path d="M2.81526 16.2665C1.61656 16.5908 0.680293 17.5638 0.361112 18.7963C0.205069 19.4089 0.205069 26.7315 0.361112 27.3441C0.680293 28.591 1.62365 29.5568 2.84363 29.8811C3.4678 30.0396 10.66 30.0396 11.2842 29.8811C12.5042 29.5568 13.4475 28.591 13.7667 27.3441C13.9227 26.7315 13.9227 19.4089 13.7667 18.7963C13.4475 17.5494 12.5042 16.5836 11.2842 16.2593C10.6813 16.1007 3.39687 16.1079 2.81526 16.2665ZM11.0785 18.6449C11.1849 18.7242 11.3409 18.8827 11.4189 18.9909C11.5679 19.1855 11.5679 19.2647 11.5679 23.0702C11.5679 26.8756 11.5679 26.9549 11.4189 27.1495C11.3409 27.2576 11.1849 27.4162 11.0785 27.4955C10.887 27.6468 10.809 27.6468 7.0639 27.6468C3.31885 27.6468 3.24083 27.6468 3.04932 27.4955C2.94293 27.4162 2.78688 27.2576 2.70886 27.1495C2.567 26.9549 2.55991 26.8612 2.53863 23.2648C2.52445 21.2323 2.53863 19.4737 2.55991 19.344C2.60956 19.0557 2.90746 18.6881 3.19827 18.5584C3.3685 18.4791 4.14872 18.4647 7.14902 18.4791C10.7948 18.4936 10.887 18.4936 11.0785 18.6449Z" fill="#8D8D8D"/>
<path d="M21.9233 16.2235C20.4693 16.4613 19.1996 17.1316 18.1286 18.2343C17.2136 19.1713 16.6178 20.2451 16.3057 21.528C16.1142 22.3208 16.1355 23.9425 16.3412 24.7281C16.6959 26.0398 17.2065 26.9551 18.0932 27.8705C18.8024 28.5984 19.1216 28.8362 19.9444 29.2543C22.0084 30.3065 24.4058 30.2128 26.4415 29.002C27.2359 28.5335 28.3282 27.4236 28.7751 26.638C29.4914 25.3839 29.7184 24.5191 29.7184 23.0704C29.7184 21.9677 29.5978 21.2974 29.2503 20.4397C28.5765 18.8109 27.1437 17.355 25.5407 16.6703C24.5406 16.2523 22.9802 16.0577 21.9233 16.2235ZM23.9093 18.5658C25.945 18.9983 27.4912 20.937 27.4912 23.0704C27.4912 24.7713 26.477 26.4434 24.9945 27.1714C23.6185 27.8488 22.2851 27.8488 20.909 27.1714C19.7316 26.5948 18.7954 25.3695 18.5187 24.0362C17.8378 20.7785 20.6892 17.8812 23.9093 18.5658Z" fill="#8D8D8D"/>
</svg>
