<svg width="30" height="30" viewBox="0 0 30 30" fill="none" xmlns="http://www.w3.org/2000/svg">
<path d="M14.3981 0.0150566C14.3059 0.026783 14.0237 0.0678272 13.7702 0.103006C12.3532 0.296495 10.6539 1.1115 9.50181 2.1493C8.04444 3.45682 7.01334 5.3448 6.70228 7.27969C6.58707 7.98329 6.60435 9.56638 6.73108 10.2113C7.14006 12.328 8.31518 14.2863 9.89927 15.5059L10.291 15.8108L10.1297 15.8694C9.43268 16.1391 9.13315 16.274 8.53983 16.573C5.98223 17.8805 3.90275 19.8565 2.42234 22.3777C1.21266 24.4416 0.532941 26.7459 0.394693 29.2964L0.35437 30H1.5122H2.67579V29.7127C2.67579 27.725 3.488 24.981 4.57671 23.2924C6.25297 20.6832 8.49951 18.8949 11.2357 17.9861C13.8394 17.1183 16.3969 17.1183 19.0006 17.9861C21.7368 18.8949 23.9833 20.6832 25.6596 23.2924C26.7483 24.981 27.5605 27.725 27.5605 29.7127V30H28.7241H29.8819L29.8416 29.2964C29.7034 26.7459 29.0236 24.4416 27.814 22.3777C26.3336 19.8565 24.2541 17.8805 21.6965 16.573C21.1032 16.274 20.8036 16.1391 20.1066 15.8694L19.9453 15.8108L20.337 15.5059C21.9211 14.2863 23.0962 12.328 23.5052 10.2113C23.6319 9.56638 23.6492 7.98329 23.534 7.27969C23.2863 5.73764 22.5202 4.10178 21.5064 2.92912C20.2449 1.48088 18.4707 0.460669 16.6216 0.120596C16.1781 0.0385113 14.7092 -0.0318489 14.3981 0.0150566ZM16.0917 2.41315C19.4787 2.97603 21.7944 6.2243 21.2529 9.64847C20.6999 13.0961 17.5087 15.4531 14.1447 14.902C10.7576 14.3391 8.4419 11.0908 8.98338 7.66667C9.53637 4.21905 12.7276 1.862 16.0917 2.41315Z" fill="#8D8D8D"/>
</svg>
