<svg width="80" height="80" viewBox="0 0 80 80" fill="none" xmlns="http://www.w3.org/2000/svg">
<path fill-rule="evenodd" clip-rule="evenodd" d="M39.9998 4.99996C20.6699 4.99996 4.99984 20.67 4.99984 40C4.99984 59.3299 20.6699 75 39.9998 75C59.3298 75 74.9998 59.3299 74.9998 40C74.9998 37.8248 74.8016 35.6974 74.4227 33.6344C74.2564 32.7291 74.8555 31.8604 75.7608 31.6941C76.6661 31.5278 77.5349 32.1269 77.7012 33.0322C78.1164 35.2929 78.3332 37.6219 78.3332 40C78.3332 61.1709 61.1708 78.3333 39.9998 78.3333C18.8289 78.3333 1.6665 61.1709 1.6665 40C1.6665 18.829 18.8289 1.66663 39.9998 1.66663C47.7114 1.66663 54.8957 3.94547 60.9101 7.86694C61.6812 8.36968 61.8987 9.4023 61.396 10.1734C60.8932 10.9444 59.8606 11.1619 59.0896 10.6592C53.6002 7.08006 47.0455 4.99996 39.9998 4.99996ZM71.1784 18.8215C71.8292 19.4723 71.8292 20.5276 71.1784 21.1785L41.1784 51.1785C40.5275 51.8294 39.4722 51.8294 38.8213 51.1785L25.488 37.8451C24.8371 37.1943 24.8371 36.139 25.488 35.4881C26.1389 34.8372 27.1941 34.8372 27.845 35.4881L39.9998 47.6429L68.8213 18.8215C69.4722 18.1706 70.5275 18.1706 71.1784 18.8215Z" fill="#16C612"/>
</svg>
